<?xml version="1.0" encoding="UTF-8"?>
<svg width="24px" height="15px" viewBox="0 0 24 15" version="1.1" xmlns="http://www.w3.org/2000/svg" xmlns:xlink="http://www.w3.org/1999/xlink">
    <!-- Generator: Sketch 52.6 (67491) - http://www.bohemiancoding.com/sketch -->
    <title>Path</title>
    <desc>Created with Sketch.</desc>
    <g id="Desktop" stroke="none" stroke-width="1" fill="none" fill-rule="evenodd">
        <g id="Bulanov_lead2" transform="translate(-1584.000000, -796.000000)" fill="#C2A060">
            <path d="M1606.96105,802.45343 L1587.54692,802.45343 L1592.17942,797.786522 C1592.58525,797.377939 1592.58525,796.715141 1592.17942,796.306618 C1591.77358,795.897794 1591.11563,795.897794 1590.71039,796.306618 L1584.30438,802.759927 C1583.89854,803.16851 1583.89854,803.831369 1584.30438,804.239831 L1590.71039,810.693442 C1590.91325,810.897915 1591.17911,811 1591.44491,811 C1591.7107,811 1591.97656,810.897915 1592.17942,810.693442 C1592.58525,810.284859 1592.58525,809.622061 1592.17942,809.213599 L1587.54692,804.546449 L1606.96105,804.546449 C1607.53476,804.546449 1608,804.077848 1608,803.499909 C1608,802.92197 1607.53482,802.45343 1606.96105,802.45343 Z" id="Path" transform="translate(1596.000000, 803.500000) scale(-1, 1) translate(-1596.000000, -803.500000) "></path>
        </g>
    </g>
</svg>