<?xml version="1.0" encoding="UTF-8"?>
<svg width="30px" height="30px" viewBox="0 0 30 30" version="1.1" xmlns="http://www.w3.org/2000/svg" xmlns:xlink="http://www.w3.org/1999/xlink">
    <!-- Generator: Sketch 52.6 (67491) - http://www.bohemiancoding.com/sketch -->
    <title>cocktail-with-orange-slice (1)</title>
    <desc>Created with Sketch.</desc>
    <g id="Desktop" stroke="none" stroke-width="1" fill="none" fill-rule="evenodd">
        <g id="Bulanov_lead2" transform="translate(-754.000000, -1870.000000)" fill="#C2A060" fill-rule="nonzero">
            <g id="cocktail-with-orange-slice-(1)" transform="translate(754.000000, 1870.000000)">
                <path d="M25.125,9.58235294 C27.7857143,9.58235294 29.9464286,7.44705882 29.9464286,4.81764706 C29.9464286,2.18823529 27.7857143,0.0529411765 25.125,0.0529411765 C22.7857143,0.0529411765 20.7857143,1.70294118 20.375,3.97941176 L20.3392857,4.16470588 L0.705357143,4.16470588 C0.446428571,4.16470588 0.205357143,4.31470588 0.0982142857,4.55294118 C-0.00892857143,4.79117647 0.0357142857,5.06470588 0.205357143,5.25882353 L11.375,17.7970588 C11.5,17.9382353 11.6875,18.0176471 11.875,18.0176471 L12.2410714,18.0176471 L12.2410714,18.2382353 C12.25,21.5735294 12.25,24.9970588 12.2410714,28.4029412 L12.2410714,28.6235294 L8.54464286,28.6235294 C8.17857143,28.6235294 7.875,28.9235294 7.875,29.2852941 C7.875,29.6470588 8.17857143,29.9470588 8.54464286,29.9470588 L17.2857143,29.9470588 C17.6517857,29.9470588 17.9553571,29.6470588 17.9553571,29.2852941 C17.9553571,28.9235294 17.6517857,28.6235294 17.2857143,28.6235294 L13.5892857,28.6235294 L13.5892857,28.4029412 C13.5982143,24.9970588 13.5982143,21.5823529 13.5892857,18.2382353 L13.5892857,18.0176471 L13.9553571,18.0176471 C14.1517857,18.0176471 14.3303571,17.9382353 14.4553571,17.7970588 L22.4642857,8.80588235 L22.625,8.90294118 C23.375,9.34411765 24.2410714,9.58235294 25.125,9.58235294 Z M21.7678571,3.87352941 C22.1964286,2.4 23.5714286,1.36764706 25.1160714,1.36764706 C27.0357143,1.36764706 28.5982143,2.91176471 28.5982143,4.80882353 C28.5982143,6.70588235 27.0357143,8.25 25.1160714,8.25 C24.5982143,8.25 24.0803571,8.13529412 23.6160714,7.91470588 L23.3482143,7.79117647 L25.625,5.25 C25.7946429,5.05588235 25.8392857,4.77352941 25.7321429,4.54411765 C25.625,4.30588235 25.3839286,4.15588235 25.125,4.15588235 L21.6964286,4.15588235 L21.7678571,3.87352941 Z M13.6517857,16.6852941 L12.1785714,16.6852941 L5.84821429,9.57352941 L19.9821429,9.57352941 L13.6517857,16.6852941 Z M21.1607143,8.25882353 L4.66964286,8.25882353 L2.1875,5.47058824 L23.6428571,5.47058824 L21.1607143,8.25882353 Z" id="Shape"></path>
            </g>
        </g>
    </g>
</svg>