<?xml version="1.0" encoding="UTF-8"?>
<svg width="35px" height="30px" viewBox="0 0 35 30" version="1.1" xmlns="http://www.w3.org/2000/svg" xmlns:xlink="http://www.w3.org/1999/xlink">
    <!-- Generator: Sketch 52.6 (67491) - http://www.bohemiancoding.com/sketch -->
    <title>beach-day (1)</title>
    <desc>Created with Sketch.</desc>
    <g id="Desktop" stroke="none" stroke-width="1" fill="none" fill-rule="evenodd">
        <g id="Bulanov_lead2" transform="translate(-1189.000000, -1950.000000)" fill="#C2A060" fill-rule="nonzero">
            <g id="beach-day-(1)" transform="translate(1189.000000, 1950.000000)">
                <path d="M31.3043478,22.762963 C32.7661169,22.762963 33.8830585,21.9333333 34.3853073,20.4814815 C34.4377811,20.3333333 34.4227886,20.1703704 34.3553223,20.0296296 C34.2878561,19.8888889 34.1604198,19.7851852 34.0104948,19.7333333 C33.8605697,19.6814815 33.6956522,19.6962963 33.5532234,19.762963 C33.4107946,19.8296296 33.3058471,19.9555556 33.2533733,20.1037037 C32.916042,21.0888889 32.2638681,21.5851852 31.3118441,21.5851852 C30.3823088,21.5851852 29.5202399,20.9185185 29.1829085,19.9185185 C29.1004498,19.6814815 28.8755622,19.5185185 28.6131934,19.5185185 L28.5982009,19.5185185 L28.5907046,19.5185185 C28.3283358,19.5185185 28.1034483,19.6814815 28.0209895,19.9185185 C27.6761619,20.9111111 26.8215892,21.5851852 25.892054,21.5851852 C24.9850075,21.5851852 24.137931,20.9333333 23.7856072,19.9703704 L23.7781109,19.9481481 L23.7781109,13.9851852 L23.9505247,14.0148148 C24.9850075,14.1703704 25.9445277,14.6074074 26.7316342,15.2814815 C26.874063,15.4074074 27.0614693,15.4740741 27.2563718,15.4740741 C27.4662669,15.4740741 27.6761619,15.3851852 27.826087,15.237037 C28.4482759,14.6074074 29.2878561,14.2592593 30.17991,14.2592593 C31.0794603,14.2592593 31.9115442,14.6074074 32.5412294,15.2444444 C32.6986507,15.4074074 32.9310345,15.4962963 33.1634183,15.4814815 C33.5907046,15.4592593 33.9205397,15.1111111 33.9205397,14.6962963 C33.9205397,10.1851852 29.5277361,6.41481481 23.9205397,6.11851852 L23.7781109,6.11111111 L23.7781109,3.74074074 C23.7781109,3.41481481 23.5082459,3.14814815 23.1784108,3.14814815 C22.8485757,3.14814815 22.5787106,3.41481481 22.5787106,3.74074074 L22.5787106,6.08888889 L22.4362819,6.0962963 C16.8515742,6.40740741 12.4737631,10.1703704 12.4737631,14.6740741 C12.4737631,15.0962963 12.8035982,15.437037 13.2233883,15.4592593 C13.2383808,15.4592593 13.2533733,15.4592593 13.2683658,15.4592593 C13.4857571,15.4592593 13.6956522,15.3703704 13.8455772,15.2222222 C14.4752624,14.5851852 15.3073463,14.237037 16.2068966,14.237037 C17.0989505,14.237037 17.9385307,14.5851852 18.5607196,15.2148148 C18.7106447,15.362963 18.9205397,15.4518519 19.1304348,15.4518519 C19.3178411,15.4518519 19.5052474,15.3851852 19.6476762,15.2592593 C20.4272864,14.6 21.3793103,14.162963 22.3913043,14 L22.5637181,13.9703704 L22.5637181,19.9777778 L22.5562219,20 C22.1889055,20.962963 21.3643178,21.5777778 20.4647676,21.5777778 C19.5352324,21.5777778 18.6731634,20.9111111 18.3358321,19.9111111 C18.2533733,19.6740741 18.0284858,19.5111111 17.7661169,19.5111111 L17.7511244,19.5111111 L17.7436282,19.5111111 C17.4812594,19.5111111 17.2563718,19.6740741 17.173913,19.9111111 C16.8290855,20.9037037 15.9745127,21.5777778 15.0449775,21.5777778 C14.1154423,21.5777778 13.2533733,20.9111111 12.916042,19.9111111 C12.8335832,19.6740741 12.6086957,19.5111111 12.3463268,19.5111111 L12.3313343,19.5111111 L12.3238381,19.5111111 C12.0614693,19.5111111 11.8365817,19.6740741 11.7541229,19.9111111 C11.4092954,20.9037037 10.5547226,21.5777778 9.62518741,21.5777778 C8.67316342,21.5777778 8.02098951,21.0814815 7.68365817,20.0962963 C7.63118441,19.9481481 7.52623688,19.8222222 7.3838081,19.7555556 C7.24137931,19.6888889 7.07646177,19.6740741 6.92653673,19.7259259 C6.77661169,19.7777778 6.64917541,19.8814815 6.58170915,20.0222222 C6.51424288,20.162963 6.49925037,20.3259259 6.55172414,20.4740741 C7.04647676,21.9259259 8.17091454,22.7555556 9.63268366,22.7555556 C10.6146927,22.7555556 11.5592204,22.2962963 12.2263868,21.4888889 L12.3388306,21.3481481 L12.4512744,21.4888889 C13.1184408,22.2962963 14.0629685,22.7555556 15.0449775,22.7555556 C16.0269865,22.7555556 16.9715142,22.2962963 17.6386807,21.4888889 L17.7511244,21.3481481 L17.8635682,21.4888889 C18.5307346,22.2962963 19.4752624,22.7555556 20.4572714,22.7555556 C21.1169415,22.7555556 21.7616192,22.5481481 22.3238381,22.162963 L22.5562219,22 L22.5562219,24.8148148 L22.5412294,24.8444444 C22.1514243,25.7037037 21.3568216,26.2592593 20.5097451,26.2592593 C19.5802099,26.2592593 18.7181409,25.5925926 18.3808096,24.5925926 C18.2983508,24.3555556 18.0734633,24.1925926 17.8110945,24.1925926 L17.7961019,24.1925926 L17.7886057,24.1925926 C17.5262369,24.1925926 17.3013493,24.3555556 17.2188906,24.5925926 C16.874063,25.5851852 16.0194903,26.2592593 15.089955,26.2592593 C14.1604198,26.2592593 13.2983508,25.5925926 12.9610195,24.5925926 C12.8785607,24.3555556 12.6536732,24.1925926 12.3913043,24.1925926 L12.3763118,24.1925926 L12.3688156,24.1925926 C12.1064468,24.1925926 11.8815592,24.3555556 11.7991004,24.5925926 C11.4542729,25.5851852 10.5997001,26.2592593 9.67016492,26.2592593 C8.74062969,26.2592593 7.87856072,25.5925926 7.54122939,24.5925926 C7.45877061,24.3555556 7.23388306,24.1925926 6.97151424,24.1925926 L6.95652174,24.1925926 L6.94902549,24.1925926 C6.68665667,24.1925926 6.46176912,24.3555556 6.37931034,24.5925926 C6.03448276,25.5851852 5.17991004,26.2592593 4.25037481,26.2592593 C3.29835082,26.2592593 2.64617691,25.762963 2.30884558,24.7777778 C2.25637181,24.6296296 2.15142429,24.5037037 2.0089955,24.437037 C1.86656672,24.3703704 1.70164918,24.3555556 1.55172414,24.4074074 C1.23688156,24.5111111 1.07196402,24.8518519 1.17691154,25.1555556 C1.67166417,26.6074074 2.79610195,27.437037 4.25787106,27.437037 C5.23988006,27.437037 6.1844078,26.9777778 6.85157421,26.1703704 L6.96401799,26.0296296 L7.07646177,26.1703704 C7.74362819,26.9777778 8.68815592,27.437037 9.67016492,27.437037 C10.6521739,27.437037 11.5967016,26.9777778 12.2638681,26.1703704 L12.3763118,26.0296296 L12.4887556,26.1703704 C13.155922,26.9777778 14.1004498,27.437037 15.0824588,27.437037 C16.0644678,27.437037 17.0089955,26.9777778 17.6761619,26.1703704 L17.7886057,26.0296296 L17.9010495,26.1703704 C18.5682159,26.9777778 19.5127436,27.437037 20.4947526,27.437037 C21.131934,27.437037 21.7541229,27.2444444 22.3013493,26.8814815 L22.5337331,26.7259259 L22.5337331,29.362963 C22.5337331,29.6888889 22.8035982,29.9555556 23.1334333,29.9555556 C23.4632684,29.9555556 23.7331334,29.6888889 23.7331334,29.362963 L23.7331334,26.6222222 L23.9730135,26.8 C24.5502249,27.2222222 25.2248876,27.4444444 25.9145427,27.4444444 C27.3763118,27.4444444 28.4932534,26.6148148 28.9955022,25.162963 C29.047976,25.0148148 29.0329835,24.8518519 28.9655172,24.7111111 C28.898051,24.5703704 28.7706147,24.4666667 28.6206897,24.4148148 C28.4707646,24.362963 28.3058471,24.3777778 28.1634183,24.4444444 C28.0209895,24.5111111 27.916042,24.637037 27.8635682,24.7851852 C27.5262369,25.7703704 26.874063,26.2666667 25.922039,26.2666667 C24.9925037,26.2666667 24.1304348,25.6 23.7931034,24.6 C23.7856072,24.5777778 23.7781109,24.5555556 23.7631184,24.5259259 L23.7481259,24.4962963 L23.7481259,21.9925926 L23.988006,22.1555556 C24.5502249,22.5555556 25.2023988,22.762963 25.8695652,22.762963 C26.8515742,22.762963 27.7961019,22.3037037 28.4632684,21.4962963 L28.5757121,21.3555556 L28.6881559,21.4962963 C29.3703148,22.2962963 30.3148426,22.762963 31.3043478,22.762963 Z M23.1934033,12.7481481 L23.185907,12.7481481 L23.1784108,12.7481481 C21.7691154,12.7703704 20.3748126,13.237037 19.2428786,14.0666667 L19.1454273,14.1333333 L19.0554723,14.0592593 C18.2458771,13.4 17.2638681,13.0518519 16.1994003,13.0518519 C15.4272864,13.0518519 14.6701649,13.2444444 14.0104948,13.6148148 L13.7181409,13.7777778 L13.7856072,13.4592593 C14.1529235,11.7481481 15.2923538,10.1777778 17.0014993,9.04444444 C18.7181409,7.9037037 20.9070465,7.27407407 23.155922,7.27407407 L23.1784108,7.27407407 L23.1934033,7.27407407 C25.4497751,7.27407407 27.6386807,7.9037037 29.3553223,9.04444444 C31.0644678,10.1777778 32.2038981,11.7481481 32.5712144,13.4592593 L32.6386807,13.7777778 L32.3463268,13.6148148 C31.6866567,13.2444444 30.9295352,13.0518519 30.1574213,13.0518519 C29.1004498,13.0518519 28.1109445,13.4 27.3013493,14.0592593 L27.2113943,14.1333333 L27.113943,14.0666667 C25.9970015,13.237037 24.5952024,12.7703704 23.1934033,12.7481481 Z" id="Shape"></path>
                <path d="M3.48575712,7.80740741 C3.5982009,8.31851852 3.80809595,8.78518519 4.10794603,9.19259259 C4.10044978,9.2 4.09295352,9.2 4.09295352,9.20740741 L2.46626687,10.8148148 C2.23388306,11.0444444 2.23388306,11.4222222 2.46626687,11.6518519 C2.5862069,11.7703704 2.73613193,11.8222222 2.89355322,11.8222222 C3.05097451,11.8222222 3.20089955,11.762963 3.32083958,11.6518519 L4.94752624,10.0444444 C4.95502249,10.037037 4.95502249,10.0296296 4.96251874,10.0296296 C5.38230885,10.3259259 5.86206897,10.5407407 6.3868066,10.6518519 L6.3868066,13.4518519 C6.3868066,13.7777778 6.65667166,14.0444444 6.98650675,14.0444444 C7.31634183,14.0444444 7.5862069,13.7777778 7.5862069,13.4518519 L7.5862069,10.6962963 C8.22338831,10.6222222 8.80809595,10.3851852 9.31034483,10.0296296 L10.952024,11.6518519 C11.071964,11.7703704 11.2218891,11.8222222 11.3793103,11.8222222 C11.5367316,11.8222222 11.6866567,11.762963 11.8065967,11.6518519 C12.0389805,11.4222222 12.0389805,11.0444444 11.8065967,10.8148148 L10.1424288,9.18518519 C10.4347826,8.77777778 10.6521739,8.31851852 10.7571214,7.81481481 L13.6431784,7.81481481 C13.9730135,7.81481481 14.2428786,7.54814815 14.2428786,7.22222222 C14.2428786,6.8962963 13.9730135,6.62962963 13.6431784,6.62962963 L10.8170915,6.62962963 C10.7421289,5.98518519 10.5022489,5.39259259 10.1424288,4.8962963 L11.7841079,3.27407407 C12.0164918,3.04444444 12.0164918,2.66666667 11.7841079,2.43703704 C11.5517241,2.20740741 11.1694153,2.20740741 10.9370315,2.43703704 L9.29535232,4.05925926 C8.8005997,3.7037037 8.2083958,3.46666667 7.57121439,3.39259259 L7.57121439,0.62962963 C7.57121439,0.303703704 7.30134933,0.037037037 6.97151424,0.037037037 C6.64167916,0.037037037 6.37181409,0.303703704 6.37181409,0.62962963 L6.37181409,3.43703704 C5.84707646,3.54074074 5.36731634,3.75555556 4.95502249,4.05185185 L3.31334333,2.43703704 C3.08095952,2.20740741 2.69865067,2.20740741 2.46626687,2.43703704 C2.23388306,2.66666667 2.23388306,3.04444444 2.46626687,3.27407407 L4.10794603,4.8962963 C3.74062969,5.39259259 3.50074963,5.98518519 3.43328336,6.62962963 C3.41829085,6.62962963 3.3958021,6.62962963 3.3808096,6.62962963 L0.59970015,6.62962963 C0.269865067,6.62962963 0,6.8962963 0,7.22222222 C0,7.54814815 0.269865067,7.81481481 0.59970015,7.81481481 L3.37331334,7.81481481 C3.4107946,7.81481481 3.44827586,7.81481481 3.48575712,7.80740741 Z M7.12143928,4.55555556 C8.50824588,4.55555556 9.64017991,5.67407407 9.64017991,7.04444444 C9.64017991,8.41481481 8.50824588,9.53333333 7.12143928,9.53333333 C5.73463268,9.53333333 4.60269865,8.41481481 4.60269865,7.04444444 C4.60269865,5.67407407 5.73463268,4.55555556 7.12143928,4.55555556 Z" id="Shape"></path>
            </g>
        </g>
    </g>
</svg>