<?xml version="1.0" encoding="UTF-8"?>
<svg width="53px" height="70px" viewBox="0 0 53 70" version="1.1" xmlns="http://www.w3.org/2000/svg" xmlns:xlink="http://www.w3.org/1999/xlink">
    <!-- Generator: Sketch 52.6 (67491) - http://www.bohemiancoding.com/sketch -->
    <title>certificate</title>
    <desc>Created with Sketch.</desc>
    <g id="Desktop" stroke="none" stroke-width="1" fill="none" fill-rule="evenodd">
        <g id="Bulanov_lead2" transform="translate(-1098.000000, -4287.000000)" fill="#C2A060">
            <g id="certificate" transform="translate(1098.000000, 4287.000000)">
                <path d="M39.375,48.125 C38.7709766,48.125 38.28125,48.6147266 38.28125,49.21875 C38.28125,49.8227734 38.7709766,50.3125 39.375,50.3125 C40.5811328,50.3125 41.5625,51.2938672 41.5625,52.5 C41.5625,53.1040234 42.0522266,53.59375 42.65625,53.59375 C43.2602734,53.59375 43.75,53.1040234 43.75,52.5 C43.75,50.0875977 41.7874023,48.125 39.375,48.125 Z" id="Path"></path>
                <path d="M49.21875,0 L3.28125,0 C1.47205078,0 0,1.47205078 0,3.28125 L0,62.34375 C0,64.1529492 1.47205078,65.625 3.28125,65.625 L27.3555078,65.625 C27.3698633,65.7316406 27.3983008,65.8370508 27.4445117,65.9371289 C27.594082,66.2607422 27.8918555,66.49125 28.2428125,66.5546875 L31.0810938,67.0680664 L33.5875586,69.6657227 C33.7949609,69.8806445 34.0797461,70 34.3745117,70 C34.4194922,70 34.4648828,69.9971289 34.51,69.9915234 C34.8517969,69.9488672 35.1533984,69.7477539 35.3241602,69.4488867 L37.5094727,65.625 L41.2156445,65.625 L43.3796289,69.445332 C43.549707,69.7455664 43.8514453,69.9479102 44.1937891,69.9913867 C44.2397266,69.9971289 44.2856641,70 44.3313281,70 C44.6262305,70 44.9108789,69.8806445 45.1182812,69.6657227 L47.6247461,67.0680664 L50.4630273,66.5546875 C50.8131641,66.4913867 51.1105273,66.2616992 51.2603711,65.939043 C51.4089844,65.6189844 51.3935352,65.2473828 51.2200391,64.9404492 C52.0186133,64.3228906 52.5,63.3623047 52.5,62.34375 L52.5,3.28125 C52.5,1.47205078 51.0279492,0 49.21875,0 Z M2.1875,62.34375 L2.1875,3.28125 C2.1875,2.67818359 2.67818359,2.1875 3.28125,2.1875 L49.21875,2.1875 C49.8218164,2.1875 50.3125,2.67818359 50.3125,3.28125 L50.3125,62.34375 C50.3125,62.5783594 50.2340234,62.8035352 50.0973047,62.9889258 L46.7574023,57.1879492 C47.6217383,55.8316992 48.125,54.2240234 48.125,52.5 C48.125,47.6751953 44.1998047,43.75 39.375,43.75 C34.5501953,43.75 30.625,47.6751953 30.625,52.5 C30.625,54.2229297 31.1275781,55.8297852 31.990957,57.1854883 L28.3584766,63.4375 L3.28125,63.4375 C2.67818359,63.4375 2.1875,62.9468164 2.1875,62.34375 Z M39.375,59.0625 C35.7564648,59.0625 32.8125,56.1185352 32.8125,52.5 C32.8125,48.8814648 35.7564648,45.9375 39.375,45.9375 C42.9935352,45.9375 45.9375,48.8814648 45.9375,52.5 C45.9375,56.1185352 42.9935352,59.0625 39.375,59.0625 Z M34.1487891,67.0970508 L32.4101367,65.2952344 C32.2507227,65.1300781 32.0435938,65.0193359 31.8177344,64.978457 L30.166582,64.6797266 L33.48625,58.9661133 C34.6230664,60.0024414 36.0333203,60.743457 37.5945117,61.0674805 L34.1487891,67.0970508 Z M38.7596289,63.4375 L39.3707617,62.3679492 L39.9765625,63.4375 L38.7596289,63.4375 Z M46.8883789,64.978457 C46.6625195,65.0193359 46.4553906,65.1300781 46.2959766,65.2952344 L44.5612891,67.0928125 L41.1490625,61.0688477 C42.7108008,60.745918 44.1217383,60.0057227 45.2595117,58.9700781 L48.5460937,64.6784961 L46.8883789,64.978457 Z" id="Shape" fill-rule="nonzero"></path>
                <path d="M35,16.40625 C35.6040234,16.40625 36.09375,15.9165234 36.09375,15.3125 C36.09375,14.7084766 35.6040234,14.21875 35,14.21875 L17.5,14.21875 C16.8959766,14.21875 16.40625,14.7084766 16.40625,15.3125 C16.40625,15.9165234 16.8959766,16.40625 17.5,16.40625 L35,16.40625 Z" id="Path"></path>
                <path d="M40.46875,19.6875 L12.03125,19.6875 C11.4272266,19.6875 10.9375,20.1772266 10.9375,20.78125 C10.9375,21.3852734 11.4272266,21.875 12.03125,21.875 L40.46875,21.875 C41.0727734,21.875 41.5625,21.3852734 41.5625,20.78125 C41.5625,20.1772266 41.0727734,19.6875 40.46875,19.6875 Z" id="Path"></path>
                <path d="M15.3125,30.625 L16.40625,30.625 C17.0102734,30.625 17.5,30.1352734 17.5,29.53125 C17.5,28.9272266 17.0102734,28.4375 16.40625,28.4375 L15.3125,28.4375 C14.7084766,28.4375 14.21875,28.9272266 14.21875,29.53125 C14.21875,30.1352734 14.7084766,30.625 15.3125,30.625 Z" id="Path"></path>
                <path d="M15.3125,36.09375 L16.40625,36.09375 C17.0102734,36.09375 17.5,35.6040234 17.5,35 C17.5,34.3959766 17.0102734,33.90625 16.40625,33.90625 L15.3125,33.90625 C14.7084766,33.90625 14.21875,34.3959766 14.21875,35 C14.21875,35.6040234 14.7084766,36.09375 15.3125,36.09375 Z" id="Path"></path>
                <path d="M15.3125,41.5625 L16.40625,41.5625 C17.0102734,41.5625 17.5,41.0727734 17.5,40.46875 C17.5,39.8647266 17.0102734,39.375 16.40625,39.375 L15.3125,39.375 C14.7084766,39.375 14.21875,39.8647266 14.21875,40.46875 C14.21875,41.0727734 14.7084766,41.5625 15.3125,41.5625 Z" id="Path"></path>
                <path d="M37.1875,28.4375 L20.78125,28.4375 C20.1772266,28.4375 19.6875,28.9272266 19.6875,29.53125 C19.6875,30.1352734 20.1772266,30.625 20.78125,30.625 L37.1875,30.625 C37.7915234,30.625 38.28125,30.1352734 38.28125,29.53125 C38.28125,28.9272266 37.7915234,28.4375 37.1875,28.4375 Z" id="Path"></path>
                <path d="M37.1875,33.90625 L20.78125,33.90625 C20.1772266,33.90625 19.6875,34.3959766 19.6875,35 C19.6875,35.6040234 20.1772266,36.09375 20.78125,36.09375 L37.1875,36.09375 C37.7915234,36.09375 38.28125,35.6040234 38.28125,35 C38.28125,34.3959766 37.7915234,33.90625 37.1875,33.90625 Z" id="Path"></path>
                <path d="M37.1875,39.375 L20.78125,39.375 C20.1772266,39.375 19.6875,39.8647266 19.6875,40.46875 C19.6875,41.0727734 20.1772266,41.5625 20.78125,41.5625 L37.1875,41.5625 C37.7915234,41.5625 38.28125,41.0727734 38.28125,40.46875 C38.28125,39.8647266 37.7915234,39.375 37.1875,39.375 Z" id="Path"></path>
                <path d="M10.9375,51.40625 C10.9375,52.0102734 11.4272266,52.5 12.03125,52.5 L21.875,52.5 C22.4790234,52.5 22.96875,52.0102734 22.96875,51.40625 C22.96875,50.8022266 22.4790234,50.3125 21.875,50.3125 L12.03125,50.3125 C11.4272266,50.3125 10.9375,50.8022266 10.9375,51.40625 Z" id="Path"></path>
                <path d="M26.25,59.0625 L10.8275781,59.0625 C10.3914453,56.9229883 8.70201172,55.2335547 6.5625,54.7974219 L6.5625,10.8275781 C8.70201172,10.3914453 10.3914453,8.70201172 10.8275781,6.5625 L41.6722852,6.5625 C42.108418,8.70201172 43.7978516,10.3914453 45.9373633,10.8275781 L45.9373633,43.75 C45.9373633,44.3540234 46.4270898,44.84375 47.0311133,44.84375 C47.6351367,44.84375 48.1248633,44.3540234 48.1248633,43.75 L48.1248633,9.84375 C48.1248633,9.23972656 47.6351367,8.75 47.0311133,8.75 C45.2217773,8.75 43.7498633,7.27808594 43.7498633,5.46875 C43.7498633,4.86472656 43.2601367,4.375 42.6561133,4.375 L9.84375,4.375 C9.23972656,4.375 8.75,4.86472656 8.75,5.46875 C8.75,7.27808594 7.27808594,8.75 5.46875,8.75 C4.86472656,8.75 4.375,9.23972656 4.375,9.84375 L4.375,55.78125 C4.375,56.3852734 4.86472656,56.875 5.46875,56.875 C7.27808594,56.875 8.75,58.3469141 8.75,60.15625 C8.75,60.7602734 9.23972656,61.25 9.84375,61.25 L26.25,61.25 C26.8540234,61.25 27.34375,60.7602734 27.34375,60.15625 C27.34375,59.5522266 26.8540234,59.0625 26.25,59.0625 Z" id="Path"></path>
            </g>
        </g>
    </g>
</svg>