<?xml version="1.0" encoding="UTF-8"?>
<svg width="20px" height="15px" viewBox="0 0 20 15" version="1.1" xmlns="http://www.w3.org/2000/svg" xmlns:xlink="http://www.w3.org/1999/xlink">
    <!-- Generator: Sketch 52.6 (67491) - http://www.bohemiancoding.com/sketch -->
    <title>email</title>
    <desc>Created with Sketch.</desc>
    <g id="Desktop" stroke="none" stroke-width="1" fill="none" fill-rule="evenodd">
        <g id="Bulanov_lead2" transform="translate(-1573.000000, -5448.000000)" fill="#252525">
            <g id="email" transform="translate(1573.000000, 5448.000000)">
                <path d="M19.9134199,1.43593074 C19.9134199,1.41316017 19.9290909,1.39099567 19.9281014,1.36848485 L13.8466667,7.22822511 L19.9207792,12.9007792 C19.924329,12.8602597 19.9134199,12.8193939 19.9134199,12.7780087 L19.9134199,1.43593074 Z" id="Path"></path>
                <path d="M12.918355,8.12995671 L10.4357576,10.5185281 C10.3101299,10.6393939 10.1478788,10.7 9.98554113,10.7 C9.82658009,10.7 9.66761905,10.6419913 9.54285714,10.5257143 L7.06701299,8.21861472 L0.953246753,14.1116017 C1.10190476,14.1650216 1.26147186,14.2064935 1.42857143,14.2064935 L18.5425974,14.2064935 C18.7907359,14.2064935 19.0234632,14.1309091 19.2258009,14.0181818 L12.918355,8.12995671 Z" id="Path"></path>
                <path d="M9.97844156,9.15645022 L19.2594805,0.216103896 C19.0493506,0.0911688312 18.8047619,0.00735930736 18.5425974,0.00735930736 L1.42857143,0.00735930736 C1.08718615,0.00735930736 0.774372294,0.13991342 0.530735931,0.342077922 L9.97844156,9.15645022 Z" id="Path"></path>
                <path d="M0,1.65367965 L0,12.7778355 C0,12.9055411 0.0293506494,13.028658 0.0612121212,13.1463203 L6.0991342,7.33194805 L0,1.65367965 Z" id="Path"></path>
            </g>
        </g>
    </g>
</svg>