<?xml version="1.0" encoding="UTF-8"?>
<svg width="63px" height="70px" viewBox="0 0 63 70" version="1.1" xmlns="http://www.w3.org/2000/svg" xmlns:xlink="http://www.w3.org/1999/xlink">
    <!-- Generator: Sketch 52.6 (67491) - http://www.bohemiancoding.com/sketch -->
    <title>engineering</title>
    <desc>Created with Sketch.</desc>
    <g id="Desktop" stroke="none" stroke-width="1" fill="none" fill-rule="evenodd">
        <g id="Bulanov_lead2" transform="translate(-764.000000, -4287.000000)" fill="#C2A060">
            <g id="engineering" transform="translate(764.000000, 4287.000000)">
                <path d="M19.002591,35.6544766 C18.7554613,35.4092428 18.3837456,35.3358129 18.0608903,35.4686414 C17.7380349,35.601314 17.5275112,35.9140535 17.5275112,36.2607795 L17.5275112,51.4782183 C17.5275112,51.9518486 17.9143092,52.3356793 18.391601,52.3356793 L33.7265237,52.3356793 C34.0760873,52.3356793 34.3910873,52.1267706 34.5249426,51.806392 C34.6586409,51.4860134 34.5846434,51.1171492 34.3376708,50.8719154 L19.002591,35.6544766 Z M19.2556908,50.6207572 L19.2556908,38.3308463 L31.6404539,50.6207572 L19.2556908,50.6207572 Z" id="Shape" fill-rule="nonzero"></path>
                <path d="M62.6105312,5.28227171 L58.1177357,0.823942094 C57.7802693,0.489064588 57.2332219,0.48922049 56.8957556,0.823942094 L30.9303292,26.5901782 C30.8472195,26.6726503 30.78202,26.7710245 30.7385012,26.8792205 L27.8923466,33.9708909 L16.4395436,22.6057906 L18.4948204,20.5664365 C18.8322868,20.231559 18.8322868,19.6887082 18.4948204,19.3538307 C18.1573541,19.0189532 17.6103067,19.0189532 17.2728404,19.3538307 L15.2175636,21.3931849 L11.7700025,17.9720713 L11.7700025,0.857461024 C11.7700025,0.383830735 11.3832045,0 10.9059127,0 L0.999359102,0 C0.522067332,0 0.135269327,0.383830735 0.135269327,0.857461024 L0.135269327,69.1412918 C0.135269327,69.614922 0.522067332,69.9987528 0.999359102,69.9987528 L10.9059127,69.9987528 C11.3832045,69.9987528 11.7700025,69.614922 11.7700025,69.1412918 L11.7700025,59.7639421 L51.4409925,59.7639421 L53.8541596,62.1585969 C54.0228928,62.3260356 54.2439426,62.409755 54.4651496,62.409755 C54.6863566,62.409755 54.9074065,62.3260356 55.0761397,62.1585969 C55.413606,61.8237194 55.413606,61.2808686 55.0761397,60.9459911 L29.2073342,35.2756347 L36.3538279,32.451314 C36.4628603,32.4081292 36.561995,32.3434298 36.6451047,32.2611136 L62.6105312,6.49487751 C62.7725087,6.33414254 62.8636309,6.11603563 62.8636309,5.88857461 C62.8636309,5.66111359 62.7725087,5.44300668 62.6105312,5.28227171 Z M10.0416658,68.2838307 L1.86344888,68.2838307 L1.86344888,66.7580178 L3.3476409,66.7580178 C3.82493267,66.7580178 4.21173067,66.3741871 4.21173067,65.9005568 C4.21173067,65.4269265 3.82493267,65.0430958 3.3476409,65.0430958 L1.86344888,65.0430958 L1.86344888,62.3434967 L3.3476409,62.3434967 C3.82493267,62.3434967 4.21173067,61.9596659 4.21173067,61.4860356 C4.21173067,61.0124053 3.82493267,60.6285746 3.3476409,60.6285746 L1.86344888,60.6285746 L1.86344888,57.9291314 L3.3476409,57.9291314 C3.82493267,57.9291314 4.21173067,57.5453007 4.21173067,57.0716704 C4.21173067,56.5980401 3.82493267,56.2142094 3.3476409,56.2142094 L1.86344888,56.2142094 L1.86344888,53.5146102 L3.3476409,53.5146102 C3.82493267,53.5146102 4.21173067,53.1307795 4.21173067,52.6571492 C4.21173067,52.1835189 3.82493267,51.7996882 3.3476409,51.7996882 L1.86344888,51.7996882 L1.86344888,49.100245 L3.3476409,49.100245 C3.82493267,49.100245 4.21173067,48.7164143 4.21173067,48.242784 C4.21173067,47.7691537 3.82493267,47.3853229 3.3476409,47.3853229 L1.86344888,47.3853229 L1.86344888,44.6857238 L3.3476409,44.6857238 C3.82493267,44.6857238 4.21173067,44.3018931 4.21173067,43.8282628 C4.21173067,43.3546325 3.82493267,42.9708018 3.3476409,42.9708018 L1.86344888,42.9708018 L1.86344888,40.2713586 L3.3476409,40.2713586 C3.82493267,40.2713586 4.21173067,39.8875278 4.21173067,39.4138976 C4.21173067,38.9402673 3.82493267,38.5564365 3.3476409,38.5564365 L1.86344888,38.5564365 L1.86344888,35.8568374 L3.3476409,35.8568374 C3.82493267,35.8568374 4.21173067,35.4730067 4.21173067,34.9993764 C4.21173067,34.5257461 3.82493267,34.1419154 3.3476409,34.1419154 L1.86344888,34.1419154 L1.86344888,31.4424722 L3.3476409,31.4424722 C3.82493267,31.4424722 4.21173067,31.0586414 4.21173067,30.5850111 C4.21173067,30.1113808 3.82493267,29.7275501 3.3476409,29.7275501 L1.86344888,29.7275501 L1.86344888,27.027951 L3.3476409,27.027951 C3.82493267,27.027951 4.21173067,26.6441203 4.21173067,26.17049 C4.21173067,25.6968597 3.82493267,25.313029 3.3476409,25.313029 L1.86344888,25.313029 L1.86344888,22.6135857 L3.3476409,22.6135857 C3.82493267,22.6135857 4.21173067,22.229755 4.21173067,21.7561247 C4.21173067,21.2824944 3.82493267,20.8986637 3.3476409,20.8986637 L1.86344888,20.8986637 L1.86344888,18.1990646 L3.3476409,18.1990646 C3.82493267,18.1990646 4.21173067,17.8152339 4.21173067,17.3416036 C4.21173067,16.8679733 3.82493267,16.4841425 3.3476409,16.4841425 L1.86344888,16.4841425 L1.86344888,13.7845434 L3.3476409,13.7845434 C3.82493267,13.7845434 4.21173067,13.4007127 4.21173067,12.9270824 C4.21173067,12.4534521 3.82493267,12.0696214 3.3476409,12.0696214 L1.86344888,12.0696214 L1.86344888,9.37017817 L3.3476409,9.37017817 C3.82493267,9.37017817 4.21173067,8.98634744 4.21173067,8.51271715 C4.21173067,8.03908686 3.82493267,7.65525612 3.3476409,7.65525612 L1.86344888,7.65525612 L1.86344888,4.95565702 L3.3476409,4.95565702 C3.82493267,4.95565702 4.21173067,4.57182628 4.21173067,4.09819599 C4.21173067,3.6245657 3.82493267,3.24073497 3.3476409,3.24073497 L1.86344888,3.24073497 L1.86344888,1.71492205 L10.0418229,1.71492205 L10.0418229,68.2838307 L10.0416658,68.2838307 Z M11.7698454,58.04902 L11.7698454,20.3971269 L15.9749776,24.57 L13.5164065,27.0097105 C13.1789401,27.344588 13.1789401,27.8874388 13.5164065,28.2223163 C13.6851397,28.389755 13.9061895,28.4734744 14.1273965,28.4734744 C14.3486035,28.4734744 14.5696534,28.389755 14.7383865,28.2223163 L17.1969576,25.7826058 L19.1205786,27.6914699 L16.6620075,30.1311804 C16.3245411,30.4660579 16.3245411,31.0089087 16.6620075,31.3437862 C16.8307406,31.5112249 17.0517905,31.5949443 17.2729975,31.5949443 C17.4942045,31.5949443 17.7152544,31.5112249 17.8839875,31.3437862 L20.3425586,28.9040757 L22.2661796,30.8129399 L19.8076085,33.2526503 C19.4701421,33.5875278 19.4701421,34.1303786 19.8076085,34.4652561 C19.9763416,34.6326949 20.1973915,34.7164143 20.4185985,34.7164143 C20.6398055,34.7164143 20.8608554,34.6326949 21.0295885,34.4652561 L23.4881596,32.0255457 L25.4117805,33.9344098 L22.9532095,36.3741203 C22.6157431,36.7089978 22.6157431,37.2518486 22.9532095,37.5867261 C23.1219426,37.7541648 23.3429925,37.8378842 23.5641995,37.8378842 C23.7854065,37.8378842 24.0064564,37.7541648 24.1751895,37.5867261 L26.6337606,35.1470156 L28.5573815,37.0558797 L26.0988105,39.4955902 C25.7613441,39.8304677 25.7613441,40.3733185 26.0988105,40.708196 C26.2675436,40.8756347 26.4885935,40.9593541 26.7098005,40.9593541 C26.9310075,40.9593541 27.1520574,40.8756347 27.3207905,40.708196 L29.7793616,38.2684855 L31.7029825,40.1773497 L29.2444115,42.6170601 C28.9069451,42.9519376 28.9069451,43.4947884 29.2444115,43.8296659 C29.4131446,43.9971047 29.6341945,44.0808241 29.8554015,44.0808241 C30.0766085,44.0808241 30.2976584,43.9971047 30.4663915,43.8296659 L32.9249626,41.3899555 L34.8485835,43.2988196 L32.3900125,45.7385301 C32.0525461,46.0734076 32.0525461,46.6162584 32.3900125,46.9511359 C32.5587456,47.1185746 32.7797955,47.202294 33.0010025,47.202294 C33.2222095,47.202294 33.4432594,47.1185746 33.6119925,46.9511359 L36.0705636,44.5114254 L37.9941845,46.4202895 L35.5356135,48.86 C35.1981471,49.1948775 35.1981471,49.7377283 35.5356135,50.0726058 C35.7043466,50.2400445 35.9253965,50.3237639 36.1466035,50.3237639 C36.3676534,50.3237639 36.5888603,50.2400445 36.7575935,50.0726058 L39.2161646,47.6328953 L41.1397855,49.5417595 L38.6812145,51.9814699 C38.3437481,52.3163474 38.3437481,52.8591982 38.6812145,53.1940757 C38.8499476,53.3615145 39.0709975,53.4452339 39.2922045,53.4452339 C39.5134115,53.4452339 39.7344613,53.3615145 39.9031945,53.1940757 L42.3617656,50.7543653 L44.2853865,52.6632294 L41.8268155,55.1029399 C41.4893491,55.4378174 41.4893491,55.9806682 41.8268155,56.3155457 C41.9955486,56.4829844 42.2165985,56.5667038 42.4378055,56.5667038 C42.6590125,56.5667038 42.8800623,56.4829844 43.0487955,56.3155457 L45.5073666,53.8758352 L49.7124988,58.04902 L11.7698454,58.04902 Z M35.0097756,29.4255679 L56.4956035,8.1045657 L57.5199426,9.12104677 L36.0341147,30.442049 L35.0097756,29.4255679 Z M33.7877955,28.2129621 L32.7634564,27.1964811 L54.2492843,5.87547884 L55.2736234,6.89195991 L33.7877955,28.2129621 Z M31.8585187,28.723853 L34.4949352,31.3400445 L30.1135287,33.0716481 L31.8585187,28.723853 Z M58.7420798,7.90844098 L55.4714214,4.66287305 L57.5069027,2.64300668 L60.7775611,5.88857461 L58.7420798,7.90844098 Z" id="Shape" fill-rule="nonzero"></path>
                <path d="M57.1868753,63.0405345 C56.849409,62.705657 56.3023616,62.705657 55.9648953,63.0405345 C55.6274289,63.375412 55.6274289,63.9182628 55.9648953,64.2531403 L58.631005,66.8987973 C58.7997382,67.0662361 59.020788,67.1499555 59.241995,67.1499555 C59.4630449,67.1499555 59.6842519,67.0662361 59.852985,66.8987973 C60.1904514,66.5639198 60.1904514,66.021069 59.852985,65.6861915 L57.1868753,63.0405345 Z" id="Path"></path>
                <path d="M61.9635636,67.7805791 C61.6260973,67.4458575 61.0790499,67.4460134 60.7415835,67.7810468 C60.4042743,68.1160802 60.4044314,68.658931 60.7420549,68.9936526 L60.796414,69.0474388 C60.9651471,69.2147216 61.1860399,69.298441 61.4072469,69.298441 C61.6284539,69.298441 61.8496608,69.2145657 62.0185511,69.0471269 C62.3558603,68.7120935 62.3557032,68.1692428 62.0180798,67.8345212 L61.9635636,67.7805791 Z" id="Path"></path>
                <path d="M34.3252594,4.50213808 C34.5464663,4.50213808 34.7676733,4.41841871 34.9364065,4.25082405 L35.0741895,4.114098 C35.4114988,3.77922049 35.4114988,3.23621381 35.0740324,2.9014922 C34.7365661,2.5666147 34.1893616,2.5667706 33.8520524,2.90164811 L33.7142693,3.03853007 C33.3769601,3.37340757 33.3769601,3.91625835 33.7144264,4.25113586 C33.8831596,4.41841871 34.1042095,4.50213808 34.3252594,4.50213808 Z" id="Path"></path>
                <path d="M29.5482569,9.24233853 C29.7693067,9.24233853 29.9905137,9.15861915 30.1592469,8.9911804 L32.8255137,6.34552339 C33.16298,6.01064588 33.16298,5.4677951 32.8255137,5.13291759 C32.4880474,4.79819599 31.941,4.79804009 31.6035337,5.13291759 L28.9372668,7.77857461 C28.5998005,8.11345212 28.5998005,8.6563029 28.9372668,8.9911804 C29.106,9.15861915 29.327207,9.24233853 29.5482569,9.24233853 Z" id="Path"></path>
                <path d="M24.7714115,13.9826949 C24.9924613,13.9826949 25.2136683,13.8989755 25.3824015,13.7315367 L28.0486683,11.0858797 C28.3861347,10.7510022 28.3861347,10.2081514 28.0486683,9.87327394 C27.711202,9.53839644 27.1641546,9.53839644 26.8266883,9.87327394 L24.1602643,12.518931 C23.822798,12.8538085 23.822798,13.3966592 24.1602643,13.7315367 C24.3291546,13.8989755 24.5502045,13.9826949 24.7714115,13.9826949 Z" id="Path"></path>
                <path d="M19.994409,18.7228953 C20.215616,18.7228953 20.4366658,18.6391759 20.605399,18.4717372 L23.2715087,15.8260802 C23.6089751,15.4912027 23.6089751,14.9483519 23.2715087,14.6134744 C22.9340424,14.2785969 22.3868379,14.2787528 22.0495287,14.6134744 L19.383419,17.2592873 C19.0459526,17.5941648 19.0459526,18.1370156 19.383419,18.4718931 C19.5521521,18.6393318 19.7733591,18.7228953 19.994409,18.7228953 Z" id="Path"></path>
            </g>
        </g>
    </g>
</svg>