<?xml version="1.0" encoding="UTF-8"?>
<svg width="25px" height="19px" viewBox="0 0 25 19" version="1.1" xmlns="http://www.w3.org/2000/svg" xmlns:xlink="http://www.w3.org/1999/xlink">
    <!-- Generator: Sketch 52.6 (67491) - http://www.bohemiancoding.com/sketch -->
    <title>Group 2</title>
    <desc>Created with Sketch.</desc>
    <g id="Desktop" stroke="none" stroke-width="1" fill="none" fill-rule="evenodd">
        <g id="Bulanov_sales" transform="translate(-640.000000, -237.000000)" fill="#C2A060">
            <g id="Group-2" transform="translate(640.000000, 237.000000)">
                <path d="M27.6220079,8.29805306 L12.9143368,8.29805306 L16.4238017,4.76251637 C16.7312531,4.45298406 16.7312531,3.95086403 16.4238017,3.64137751 C16.1163502,3.33166204 15.6179006,3.33166204 15.3109037,3.64137751 L10.4578613,8.53024808 C10.1504099,8.8397804 10.1504099,9.34194621 10.4578613,9.65138694 L15.3109037,14.5404865 C15.464584,14.69539 15.6659911,14.7727273 15.8673527,14.7727273 C16.0687143,14.7727273 16.2701214,14.69539 16.4238017,14.5404865 C16.7312531,14.2309541 16.7312531,13.7288341 16.4238017,13.4193934 L12.9143368,9.88367354 L27.6220079,9.88367354 C28.0566399,9.88367354 28.4090909,9.52867295 28.4090909,9.09084041 C28.4090909,8.65300787 28.0566853,8.29805306 27.6220079,8.29805306 Z" id="Path" transform="translate(19.318182, 9.090909) scale(-1, -1) rotate(90.000000) translate(-19.318182, -9.090909) "></path>
                <rect id="Rectangle" fill-rule="nonzero" x="0" y="2.27272727" width="16.6666667" height="1.51515152" rx="0.757575758"></rect>
                <rect id="Rectangle" fill-rule="nonzero" x="0" y="14.3939394" width="10.6060606" height="1.51515152" rx="0.757575758"></rect>
                <rect id="Rectangle" fill-rule="nonzero" x="0" y="8.33333333" width="13.6363636" height="1.51515152" rx="0.757575758"></rect>
            </g>
        </g>
    </g>
</svg>