<?xml version="1.0" encoding="UTF-8"?>
<svg width="71px" height="70px" viewBox="0 0 71 70" version="1.1" xmlns="http://www.w3.org/2000/svg" xmlns:xlink="http://www.w3.org/1999/xlink">
    <!-- Generator: Sketch 52.6 (67491) - http://www.bohemiancoding.com/sketch -->
    <title>Garant</title>
    <desc>Created with Sketch.</desc>
    <g id="Desktop" stroke="none" stroke-width="1" fill="none" fill-rule="evenodd">
        <g id="Bulanov_lead2" transform="translate(-1419.000000, -4287.000000)" fill="#C2A060" fill-rule="nonzero">
            <g id="Garant" transform="translate(1419.000000, 4287.000000)">
                <path d="M55.1178862,41.3455285 L49.0569106,26.6910569 C48.9430894,26.4065041 48.7154472,26.1788618 48.4308943,26.0650407 C48.1463415,25.9512195 47.8333333,25.9512195 47.5487805,26.0650407 C46.9512195,26.3211382 46.6666667,26.9756098 46.9227642,27.5731707 L52.0731707,39.9796748 L47.9186992,38.7845528 C47.4065041,38.6422764 46.8373984,38.8699187 46.5813008,39.3252033 L44.504065,43.1097561 L39.1544715,30.1910569 C45.9837398,28.6260163 50.9349593,22.4512195 50.9349593,15.4227642 C50.9349593,7.05691057 44.1341463,0.256097561 35.7682927,0.256097561 C27.402439,0.256097561 20.601626,7.05691057 20.601626,15.4227642 C20.601626,18.6097561 21.597561,21.6829268 23.4471545,24.2723577 L16.3902439,41.3170732 C16.2195122,41.7154472 16.304878,42.199187 16.5894309,42.5406504 C16.8739837,42.8821138 17.3577236,42.995935 17.7845528,42.8821138 L23.3617886,41.2601626 L26.1504065,46.3536585 C26.3495935,46.7235772 26.7479675,46.9512195 27.1747967,46.9512195 L27.2317073,46.9512195 C27.6869919,46.9227642 28.0569106,46.6382114 28.2276423,46.2398374 L33.8902439,32.5528455 C34.004065,32.2682927 34.004065,31.9552846 33.8902439,31.6707317 C33.7764228,31.3861789 33.5487805,31.1585366 33.2642276,31.0447154 C32.9796748,30.9308943 32.6666667,30.9308943 32.3821138,31.0447154 C32.097561,31.1585366 31.8699187,31.3861789 31.7560976,31.6707317 L27.0325203,43.1382114 L24.9552846,39.3536585 C24.699187,38.8699187 24.1300813,38.6422764 23.6178862,38.8130081 L19.4634146,40.0081301 L25.1544715,26.2642276 C27.9715447,29.0243902 31.8414634,30.6178862 35.7682927,30.6178862 C36.1097561,30.6178862 36.4512195,30.6178862 36.7926829,30.5894309 L43.2804878,46.2682927 C43.4512195,46.6666667 43.8495935,46.9512195 44.304878,46.9796748 L44.3617886,46.9796748 C44.7886179,46.9796748 45.1585366,46.7520325 45.3861789,46.3821138 L48.1747967,41.2886179 L53.7520325,42.9105691 C54.1788618,43.0243902 54.6341463,42.9105691 54.9471545,42.5691057 C55.203252,42.2276423 55.2886179,41.7439024 55.1178862,41.3455285 Z M35.7398374,2.61788618 C42.8252033,2.61788618 48.5731707,8.36585366 48.5731707,15.4512195 C48.5731707,22.5365854 42.8252033,28.2845528 35.7398374,28.2845528 C28.6544715,28.2845528 22.9065041,22.5365854 22.9065041,15.4512195 C22.9065041,8.36585366 28.6829268,2.61788618 35.7398374,2.61788618 Z" id="Shape"></path>
                <path d="M30.5325203,17.1585366 L29.8211382,21.8821138 C29.7642276,22.3089431 29.9349593,22.7357724 30.2764228,22.9918699 C30.6178862,23.2479675 31.0731707,23.2764228 31.4715447,23.1056911 L35.7398374,20.9715447 L40.0081301,23.1056911 C40.1788618,23.1910569 40.3495935,23.2195122 40.5203252,23.2195122 C40.7764228,23.2195122 41.004065,23.1341463 41.203252,22.9918699 C41.5447154,22.7357724 41.7439024,22.3089431 41.6585366,21.8821138 L40.9471545,17.1585366 L44.304878,13.7439024 C44.6178862,13.4308943 44.703252,12.9756098 44.5894309,12.5772358 C44.4471545,12.1788618 44.1056911,11.8658537 43.6788618,11.7804878 L38.9552846,10.9837398 L36.7357724,6.74390244 C36.5365854,6.34552846 36.1382114,6.11788618 35.7113821,6.11788618 C35.2845528,6.11788618 34.8861789,6.34552846 34.6869919,6.74390244 L32.4674797,10.9837398 L27.7439024,11.7804878 C27.3170732,11.8658537 26.9756098,12.1504065 26.8333333,12.5772358 C26.6910569,12.9756098 26.804878,13.4308943 27.1178862,13.7439024 L30.5325203,17.1585366 Z M38.9268293,15.9349593 C38.6707317,16.1910569 38.5569106,16.5609756 38.6138211,16.9308943 L39.0691057,20.0325203 L36.2804878,18.6382114 C35.9674797,18.4674797 35.5691057,18.4674797 35.2560976,18.6382114 L32.4674797,20.0325203 L32.9227642,16.9308943 C32.9796748,16.5609756 32.8658537,16.2195122 32.6097561,15.9349593 L30.4186992,13.6869919 L33.4918699,13.1747967 C33.8617886,13.1178862 34.1747967,12.8902439 34.3170732,12.5772358 L35.7682927,9.78861789 L37.2195122,12.5772358 C37.3902439,12.8902439 37.703252,13.1178862 38.0447154,13.1747967 L41.1178862,13.6869919 L38.9268293,15.9349593 Z" id="Shape"></path>
                <path d="M69.8292683,40.3495935 L65.6747967,40.3495935 L65.6747967,29.1666667 C65.6747967,28.5121951 65.1626016,28 64.5081301,28 L52.6707317,28 L53.6382114,30.3333333 L63.3414634,30.3333333 L63.3414634,40.3495935 L59.1869919,40.3495935 C58.5894309,40.3495935 58.1341463,40.7764228 58.0487805,41.3455285 C58.0772358,41.6869919 58.0772358,42 58.0203252,42.3130081 L58.0203252,52.8130081 L13.1463415,52.8130081 L13.1463415,41.4878049 C13.1463415,40.8333333 12.6341463,40.3211382 11.9796748,40.3211382 L7.82520325,40.3211382 L7.82520325,30.304878 L17.898374,30.304878 L18.8658537,27.9715447 L6.65853659,27.9715447 C6.00406504,27.9715447 5.49186992,28.4837398 5.49186992,29.1382114 L5.49186992,40.3211382 L1.33739837,40.3211382 C0.682926829,40.3211382 0.170731707,40.8333333 0.170731707,41.4878049 L0.170731707,64.5365854 C0.170731707,65.1910569 0.682926829,65.703252 1.33739837,65.703252 L5.49186992,65.703252 L5.49186992,68.7764228 C5.49186992,69.4308943 6.00406504,69.9430894 6.65853659,69.9430894 C7.31300813,69.9430894 7.82520325,69.4308943 7.82520325,68.7764228 L7.82520325,65.7317073 L63.3414634,65.7317073 L63.3414634,68.804878 C63.3414634,69.4593496 63.8536585,69.9715447 64.5081301,69.9715447 C65.1626016,69.9715447 65.6747967,69.4593496 65.6747967,68.804878 L65.6747967,65.7317073 L69.8292683,65.7317073 C70.4837398,65.7317073 70.995935,65.2195122 70.995935,64.5650407 L70.995935,41.5162602 C70.995935,40.8617886 70.4837398,40.3495935 69.8292683,40.3495935 Z M68.6626016,63.398374 L2.47560976,63.398374 L2.47560976,42.6829268 L10.8130081,42.6829268 L10.8130081,54.0081301 C10.8130081,54.6626016 11.3252033,55.1747967 11.9796748,55.1747967 L59.1869919,55.1747967 C59.8414634,55.1747967 60.3536585,54.6626016 60.3536585,54.0081301 L60.3536585,42.6829268 L68.6910569,42.6829268 L68.6910569,63.398374 L68.6626016,63.398374 Z" id="Shape"></path>
            </g>
        </g>
    </g>
</svg>