<?xml version="1.0" encoding="UTF-8"?>
<svg width="40px" height="57px" viewBox="0 0 40 57" version="1.1" xmlns="http://www.w3.org/2000/svg" xmlns:xlink="http://www.w3.org/1999/xlink">
    <!-- Generator: Sketch 52.6 (67491) - http://www.bohemiancoding.com/sketch -->
    <title>Group</title>
    <desc>Created with Sketch.</desc>
    <g id="Desktop" stroke="none" stroke-width="1" fill="none" fill-rule="evenodd">
        <g id="Bulanov_contact" transform="translate(-335.000000, -222.000000)" fill="#C19F5E" fill-rule="nonzero">
            <g id="Group" transform="translate(335.000000, 221.000000)">
                <path d="M20.2222222,1.11538462 C9.55555556,1.11538462 0.888888889,9.81538462 0.888888889,20.5230769 C0.888888889,24.7615385 3.33333333,31.2307692 8.66666667,41.0461538 C12.2222222,47.5153846 15.7777778,52.8692308 16.2222222,53.3153846 L18.8888889,57.3307692 C19.1111111,57.7769231 19.7777778,58 20.2222222,58 C20.6666667,58 21.3333333,57.7769231 21.5555556,57.3307692 L24.2222222,53.3153846 C24.6666667,52.6461538 28,47.2923077 31.7777778,41.0461538 C37.1111111,31.4538462 39.5555556,24.9846154 39.5555556,20.5230769 C39.5555556,9.81538462 30.8888889,1.11538462 20.2222222,1.11538462 Z M36.4444444,20.5230769 C36.4444444,24.0923077 34,30.5615385 28.8888889,39.4846154 C25.1111111,46.1769231 21.5555556,51.5307692 21.5555556,51.7538462 L20.2222222,53.7615385 L18.8888889,51.7538462 C18.2222222,50.8615385 14.8888889,45.7307692 11.5555556,39.7076923 C6.66666667,30.7846154 4,24.5384615 4,20.7461538 C4,11.8230769 11.1111111,4.68461538 20,4.68461538 C29.1111111,4.46153846 36.4444444,11.6 36.4444444,20.5230769 Z" id="Shape"></path>
                <path d="M20.2222222,9.59230769 C14.2222222,9.59230769 9.55555556,14.5 9.55555556,20.3 C9.55555556,26.1 14.4444444,31.0076923 20.2222222,31.0076923 C26,31.0076923 30.8888889,26.1 30.8888889,20.3 C30.8888889,14.5 26.2222222,9.59230769 20.2222222,9.59230769 Z M28,20.5230769 C28,24.7615385 24.6666667,28.1076923 20.4444444,28.1076923 C16.2222222,28.1076923 12.8888889,24.7615385 12.8888889,20.5230769 C12.8888889,16.2846154 16.2222222,12.9384615 20.4444444,12.9384615 C24.4444444,12.7153846 28,16.2846154 28,20.5230769 Z" id="Shape"></path>
            </g>
        </g>
    </g>
</svg>