<?xml version="1.0" encoding="UTF-8"?>
<svg width="70px" height="60px" viewBox="0 0 70 60" version="1.1" xmlns="http://www.w3.org/2000/svg" xmlns:xlink="http://www.w3.org/1999/xlink">
    <!-- Generator: Sketch 52.6 (67491) - http://www.bohemiancoding.com/sketch -->
    <title>handshake (1)</title>
    <desc>Created with Sketch.</desc>
    <g id="Desktop" stroke="none" stroke-width="1" fill="none" fill-rule="evenodd">
        <g id="Bulanov_lead2" transform="translate(-429.000000, -4291.000000)" fill="#C19F5E">
            <g id="handshake-(1)" transform="translate(429.000000, 4291.000000)">
                <path d="M68.6374046,15.6106195 L54.2633588,1.32743363 C53.4351145,0.504424779 52.3396947,0.0530973451 51.1641221,0.0530973451 C49.9885496,0.0530973451 48.8931298,0.504424779 48.0648855,1.32743363 L44.6984733,4.67256637 C44.2442748,5.12389381 43.8969466,5.65486726 43.6832061,6.2920354 L43.5496183,6.63716814 L27.3320611,3.74336283 C20.4923664,2.38938053 13.7862595,6.84955752 12.3969466,13.6460177 L11.6755725,17.2566372 C11.3015267,19.0619469 11.6755725,20.8938053 12.6908397,22.4336283 C13.7061069,23.9734513 15.2824427,25.0088496 17.0992366,25.380531 C20.8664122,26.1238938 24.5267176,23.7079646 25.2748092,19.9646018 L25.8091603,17.3893805 L33.4503817,18.0530973 L33.5572519,18.159292 L55.4122137,39.8761062 C56.2671756,40.7256637 56.2671756,42.1061947 55.4122137,42.9557522 C54.5572519,43.8053097 53.1679389,43.8053097 52.3129771,42.9557522 L43.3358779,34.0353982 C43.1221374,33.8230088 42.8282443,33.6902655 42.5076336,33.6902655 C42.1870229,33.6902655 41.8931298,33.8230088 41.6793893,34.0353982 C41.4656489,34.2477876 41.3320611,34.539823 41.3320611,34.8584071 C41.3320611,35.1769912 41.4656489,35.4690265 41.6793893,35.6814159 L50.6564885,44.6017699 C51.0572519,45 51.2977099,45.5575221 51.2977099,46.1415929 C51.2977099,46.7256637 51.0572519,47.2566372 50.6564885,47.6814159 C49.8015267,48.5309735 48.4122137,48.5309735 47.5572519,47.6814159 L38.6335878,38.7610619 C38.4198473,38.5486726 38.1259542,38.4159292 37.8053435,38.4159292 C37.4847328,38.4159292 37.1908397,38.5486726 36.9770992,38.7610619 C36.7633588,38.9734513 36.629771,39.2654867 36.629771,39.5840708 C36.629771,39.9026549 36.7633588,40.1946903 36.9770992,40.4070796 L45.9541985,49.3274336 C46.3549618,49.7256637 46.5954198,50.2831858 46.5954198,50.8672566 C46.5954198,51.4513274 46.3816794,51.9823009 45.9541985,52.4070796 C45.5534351,52.8053097 44.9923664,53.0442478 44.4045802,53.0442478 C43.8167939,53.0442478 43.2824427,52.8053097 42.8549618,52.4070796 L33.8778626,43.4867257 C33.6641221,43.2743363 33.370229,43.1415929 33.0496183,43.1415929 C32.7290076,43.1415929 32.4351145,43.2743363 32.221374,43.4867257 C31.7671756,43.9380531 31.7671756,44.6814159 32.221374,45.1327434 L41.1984733,54.0530973 C42.0534351,54.9026549 42.0534351,56.2831858 41.1984733,57.1327434 C40.7977099,57.5309735 40.2366412,57.7699115 39.648855,57.7699115 C39.0610687,57.7699115 38.5267176,57.5575221 38.0992366,57.1327434 L2.16412214,21.3185841 C1.95038168,21.1061947 1.65648855,20.9734513 1.33587786,20.9734513 C1.01526718,20.9734513 0.721374046,21.1061947 0.507633588,21.3185841 C0.0534351145,21.7699115 0.0534351145,22.5132743 0.507633588,22.9646018 L9.59160305,31.9911504 L6.75954198,34.8053097 C6.01145038,35.5486726 5.61068702,36.5309735 5.61068702,37.5663717 C5.61068702,38.6017699 6.01145038,39.5840708 6.75954198,40.3274336 L7.58778626,41.1504425 C8.22900763,41.7876106 9.05725191,42.1858407 9.96564885,42.2654867 L10.3129771,42.2920354 L10.3396947,42.6371681 C10.4198473,43.539823 10.8206107,44.3628319 11.4618321,45 L12.2900763,45.8230088 C12.9312977,46.460177 13.7862595,46.8584071 14.6679389,46.9380531 L15.0152672,46.9646018 L15.0419847,47.3097345 C15.1221374,48.2123894 15.5229008,49.0353982 16.1641221,49.6725664 L16.9923664,50.4955752 C17.6335878,51.1327434 18.4618321,51.5309735 19.370229,51.6106195 L19.7175573,51.6371681 L19.7442748,51.9823009 C19.8244275,52.8849558 20.2251908,53.7079646 20.8664122,54.3451327 L21.6946565,55.1681416 C22.4427481,55.9115044 23.4312977,56.3097345 24.4732824,56.3097345 C25.5152672,56.3097345 26.5038168,55.9115044 27.2519084,55.1681416 L30.0839695,52.3539823 L36.4427481,58.6725664 C37.2977099,59.5221239 38.4198473,59.9734513 39.6221374,59.9734513 C40.8244275,59.9734513 41.9465649,59.4955752 42.8015267,58.6725664 C43.6030534,57.8761062 44.0572519,56.8141593 44.110687,55.699115 L44.1374046,55.300885 L44.5381679,55.2743363 C45.6603053,55.2212389 46.7290076,54.7699115 47.5305344,53.9734513 C48.3320611,53.1769912 48.7862595,52.1150442 48.8396947,51 L48.8664122,50.6017699 L49.2671756,50.5752212 C50.4160305,50.5221239 51.4580153,50.0707965 52.259542,49.2743363 C53.0610687,48.4778761 53.5152672,47.4159292 53.5687023,46.300885 L53.5954198,45.9026549 L53.9961832,45.8761062 C55.1450382,45.8230088 56.1870229,45.3716814 56.9885496,44.5752212 C58.7519084,42.8230088 58.7519084,39.9823009 56.9885496,38.2300885 L54.4503817,35.7079646 L68.5305344,21.7168142 C70.3473282,20.0707965 70.3473282,17.3097345 68.6374046,15.6106195 Z M11.4885496,39.5044248 C11.1946565,39.7964602 10.7938931,39.9823009 10.3664122,39.9823009 C10.3664122,39.9823009 10.3664122,39.9823009 10.3664122,39.9823009 C9.9389313,39.9823009 9.53816794,39.8230088 9.24427481,39.5044248 L8.41603053,38.6814159 C8.1221374,38.3893805 7.9351145,37.9911504 7.9351145,37.5663717 C7.9351145,37.1415929 8.09541985,36.7433628 8.41603053,36.4513274 L11.0877863,33.7964602 L14.1603053,36.8495575 L11.4885496,39.5044248 Z M16.2175573,44.2035398 C15.9236641,44.4955752 15.5229008,44.6814159 15.0954198,44.6814159 C14.6679389,44.6814159 14.2671756,44.5221239 13.9732824,44.2035398 L13.1450382,43.380531 C12.851145,43.0884956 12.6641221,42.6902655 12.6641221,42.2654867 C12.6641221,41.840708 12.8244275,41.4424779 13.1450382,41.1504425 L15.8167939,38.4955752 L18.9160305,41.5752212 L16.2175573,44.2035398 Z M20.9465649,48.9026549 C20.6526718,49.1946903 20.2519084,49.380531 19.8244275,49.380531 C19.3969466,49.380531 18.9961832,49.2212389 18.7022901,48.9026549 L17.8740458,48.079646 C17.5801527,47.7876106 17.3931298,47.3893805 17.3931298,46.9646018 C17.3931298,46.539823 17.5534351,46.1415929 17.8740458,45.8495575 L20.5458015,43.1946903 L23.6450382,46.2743363 L20.9465649,48.9026549 Z M25.7022901,53.6017699 C25.4083969,53.8938053 25.0076336,54.079646 24.5801527,54.079646 C24.5801527,54.079646 24.5801527,54.079646 24.5801527,54.079646 C24.1526718,54.079646 23.7519084,53.920354 23.4580153,53.6017699 L22.629771,52.7787611 C22.3358779,52.4867257 22.148855,52.0884956 22.148855,51.6637168 C22.148855,51.2389381 22.3091603,50.840708 22.629771,50.5486726 L25.3015267,47.8938053 L28.4007634,50.9734513 L25.7022901,53.6017699 Z M52.9007634,34.1415929 L34.7862595,16.1415929 C34.5992366,15.9557522 34.3320611,15.8230088 34.0648855,15.7964602 L24.9541985,15 C24.9274809,15 24.8740458,15 24.8473282,15 C24.2862595,15 23.8053435,15.3982301 23.6984733,15.9292035 L22.9770992,19.5132743 C22.4694656,22.0088496 20.0381679,23.6017699 17.5267176,23.0973451 C16.3244275,22.8584071 15.2824427,22.1681416 14.5877863,21.1327434 C13.8931298,20.0973451 13.6526718,18.8761062 13.8931298,17.6814159 L14.6145038,14.0973451 C15.1755725,11.3893805 16.7519084,9.05309735 19.0496183,7.53982301 C21.3740458,6 24.1526718,5.46902655 26.8778626,6 L42.6145038,8.78761062 L44.6183206,10.7787611 L60.4351145,26.4955752 L52.9007634,34.1415929 Z M67.0076336,20.1238938 L62.1717557,24.9292035 L46.3549618,9.21238938 C45.9541985,8.81415929 45.740458,8.30973451 45.740458,7.77876106 C45.740458,7.22123894 45.9541985,6.71681416 46.3282443,6.34513274 L49.6946565,3 C50.0954198,2.60176991 50.6030534,2.38938053 51.1374046,2.38938053 C51.6984733,2.38938053 52.2061069,2.60176991 52.5801527,3 L67.0076336,17.2566372 C67.4083969,17.6548673 67.6221374,18.159292 67.6221374,18.6902655 C67.5954198,19.2477876 67.3816794,19.7522124 67.0076336,20.1238938 Z" id="Shape" fill-rule="nonzero"></path>
                <ellipse id="Oval" cx="62.8129771" cy="19.3274336" rx="1.14885496" ry="1.14159292"></ellipse>
            </g>
        </g>
    </g>
</svg>