<?xml version="1.0" encoding="UTF-8"?>
<svg width="29px" height="30px" viewBox="0 0 29 30" version="1.1" xmlns="http://www.w3.org/2000/svg" xmlns:xlink="http://www.w3.org/1999/xlink">
    <!-- Generator: Sketch 52.6 (67491) - http://www.bohemiancoding.com/sketch -->
    <title>hotel (3)</title>
    <desc>Created with Sketch.</desc>
    <g id="Desktop" stroke="none" stroke-width="1" fill="none" fill-rule="evenodd">
        <g id="Bulanov_lead2" transform="translate(-1191.000000, -1870.000000)" fill="#C2A060" fill-rule="nonzero">
            <g id="hotel-(3)" transform="translate(1191.000000, 1870.000000)">
                <path d="M15.7238556,3.61088132 C15.9324209,3.75787464 16.2217212,3.71110404 16.3831912,3.50397709 L17.0694384,2.56188355 L17.7556856,3.50397709 C17.8162368,3.59083678 17.9036997,3.65097041 18.0046184,3.67769647 L19.1214521,4.03181674 L18.4217491,4.96722876 C18.3611978,5.05408845 18.3275583,5.14762965 18.3275583,5.24785237 L18.3342862,6.4171174 L18.0113463,6.31021317 C17.9709788,6.29685014 17.9104276,6.29016863 17.8566043,6.29016863 C17.7825972,6.29016863 17.7153181,6.30353166 17.648039,6.34362074 C17.5336644,6.40375437 17.4529295,6.49729558 17.412562,6.61756284 C17.3789224,6.73114858 17.3856503,6.85809736 17.4327457,6.97836462 C17.4932969,7.09195037 17.5874877,7.17212854 17.7085902,7.21221763 L18.657226,7.52624881 C18.7043214,7.53961184 18.7581448,7.54629335 18.8052402,7.54629335 C18.9061589,7.54629335 19.0003497,7.51956729 19.0810846,7.45943366 C19.2021871,7.37257397 19.2761941,7.23226217 19.2761941,7.07858734 L19.2694662,5.41489023 L20.2651975,4.06522431 C20.3593883,3.94495705 20.379572,3.79128221 20.3392045,3.63092587 C20.2921091,3.49061406 20.1710067,3.3703468 20.0364484,3.33025772 L18.4419328,2.83582564 L17.4663853,1.47947821 C17.3789224,1.35252943 17.2376362,1.28571429 17.0828942,1.28571429 C16.9281522,1.28571429 16.7734102,1.35921094 16.6994031,1.47947821 L15.6229369,2.9560929 C15.5489298,3.06299714 15.5220182,3.18994591 15.5422019,3.31021317 C15.5556577,3.43048043 15.6229369,3.54406618 15.7238556,3.61088132 Z" id="Path"></path>
                <path d="M21.6167873,9.03913458 C21.6167873,8.77855552 21.408222,8.57142857 21.1458333,8.57142857 L18.595954,8.57142857 C18.3335653,8.57142857 18.125,8.77855552 18.125,9.03913458 L18.125,12.5001591 C18.125,12.7607381 18.3335653,12.9678651 18.595954,12.9678651 L21.1458333,12.9678651 C21.408222,12.9678651 21.6167873,12.7607381 21.6167873,12.5001591 L21.6167873,9.03913458 Z M19.0669079,12.0324531 L19.0669079,9.5068406 L20.6748794,9.5068406 L20.6748794,12.0324531 L19.0669079,12.0324531 Z" id="Shape"></path>
                <path d="M21.1458333,14.1428571 L18.595954,14.1428571 C18.3335653,14.1428571 18.125,14.3499841 18.125,14.6105632 L18.125,18.0715877 C18.125,18.3321667 18.3335653,18.5392937 18.595954,18.5392937 L21.1458333,18.5392937 C21.408222,18.5392937 21.6167873,18.3321667 21.6167873,18.0715877 L21.6167873,14.6105632 C21.6167873,14.3499841 21.408222,14.1428571 21.1458333,14.1428571 Z M19.0669079,17.6038816 L19.0669079,15.0782692 L20.6748794,15.0782692 L20.6748794,17.6038816 L19.0669079,17.6038816 Z" id="Shape"></path>
                <path d="M17.3374659,4.92332167 C17.2836425,4.77632835 17.169268,4.6627426 17.0347097,4.62265352 L15.4401941,4.12822144 L14.4579187,2.76519249 C14.3704558,2.63824372 14.2291696,2.57142857 14.0744276,2.57142857 C13.9196856,2.57142857 13.7649436,2.64492523 13.6909365,2.76519249 L12.715389,4.12153993 L11.1141455,4.62933503 C10.9728593,4.67610563 10.8517569,4.79637289 10.8113894,4.93000318 C10.764294,5.07031499 10.7912056,5.23735285 10.8853964,5.35762011 L11.8811277,6.70060452 L11.8676719,8.35762011 C11.8676719,8.51129494 11.9416789,8.66496977 12.0627814,8.73846643 C12.1435163,8.79860006 12.244435,8.82532612 12.3386258,8.82532612 C12.3857212,8.82532612 12.4328166,8.81864461 12.479912,8.80528158 L14.0676997,8.29080496 L15.6622153,8.81196309 C15.8169573,8.85205218 15.9716993,8.83200764 16.0860739,8.74514795 C16.2071763,8.65828826 16.2811834,8.51797646 16.2811834,8.36430162 L16.2677275,6.70728603 L17.2634588,5.36430162 C17.3576496,5.2173083 17.3778333,5.05695196 17.3374659,4.92332167 Z M15.3325475,7.70283169 L14.2157138,7.33534839 C14.1686184,7.32198536 14.1147951,7.31530385 14.0676997,7.31530385 C14.0206043,7.31530385 13.966781,7.32198536 13.9129577,7.33534839 L12.8028519,7.70283169 L12.8095798,6.53356666 C12.8095798,6.42666242 12.7759402,6.32643971 12.715389,6.25294305 L12.015686,5.31753102 L13.1325197,4.96341075 C13.2267105,4.9366847 13.3141734,4.86986955 13.3747246,4.78969138 L14.0609718,3.84759784 L14.7539469,4.78969138 C14.8144982,4.87655107 14.901961,4.9366847 15.0028797,4.96341075 L16.1197134,5.31753102 L15.4200104,6.25294305 C15.3594592,6.33980274 15.3258196,6.43334394 15.3258196,6.53356666 L15.3325475,7.70283169 Z" id="Shape"></path>
                <path d="M13.3239126,1.89755011 L14.0572552,1.16258352 L14.7838699,1.8908686 C14.8780607,1.9844098 14.9924352,2.02449889 15.1269935,2.02449889 C15.248096,2.02449889 15.3691984,1.97772829 15.4633892,1.89755011 C15.5508521,1.81069042 15.5979475,1.69042316 15.5979475,1.56347439 C15.5979475,1.4298441 15.5508521,1.30957684 15.476845,1.21603563 L14.4071067,0.146993318 C14.3196439,0.0534521158 14.1985414,0 14.0639831,0 C13.9361528,0 13.8217782,0.0467706013 13.7208595,0.13363029 L12.6511212,1.20267261 C12.4694675,1.38975501 12.4694675,1.68374165 12.6511212,1.86414254 C12.8395028,2.06458797 13.1422589,2.07126949 13.3239126,1.89755011 Z" id="Path"></path>
                <path d="M9.53345397,9.03913458 C9.53345397,8.77855552 9.32488864,8.57142857 9.0625,8.57142857 L6.51262064,8.57142857 C6.250232,8.57142857 6.04166667,8.77855552 6.04166667,9.03913458 L6.04166667,12.5001591 C6.04166667,12.7607381 6.250232,12.9678651 6.51262064,12.9678651 L9.0625,12.9678651 C9.32488864,12.9678651 9.53345397,12.7607381 9.53345397,12.5001591 L9.53345397,9.03913458 Z M8.59154603,9.5068406 L8.59154603,12.0324531 L6.98357461,12.0324531 L6.98357461,9.5068406 L8.59154603,9.5068406 Z" id="Shape"></path>
                <path d="M9.0625,14.1428571 L6.51262064,14.1428571 C6.250232,14.1428571 6.04166667,14.3499841 6.04166667,14.6105632 L6.04166667,18.0715877 C6.04166667,18.3321667 6.250232,18.5392937 6.51262064,18.5392937 L9.0625,18.5392937 C9.32488864,18.5392937 9.53345397,18.3321667 9.53345397,18.0715877 L9.53345397,14.6105632 C9.53345397,14.3499841 9.32488864,14.1428571 9.0625,14.1428571 Z M8.59154603,15.0782692 L8.59154603,17.6038816 L6.98357461,17.6038816 L6.98357461,15.0782692 L8.59154603,15.0782692 Z" id="Shape"></path>
                <path d="M27.6248144,26.8243716 L26.5819878,26.8243716 L26.5819878,14.6506522 C26.5819878,14.3900732 26.3734224,14.1829462 26.1110338,14.1829462 L24.375232,14.1829462 L24.375232,5.61056316 C24.375232,5.34998409 24.1666667,5.14285714 23.904278,5.14285714 L20.7892539,5.14285714 C20.5268653,5.14285714 20.3182999,5.34998409 20.3182999,5.61056316 C20.3182999,5.87114222 20.5268653,6.07826917 20.7892539,6.07826917 L23.4333241,6.07826917 L23.4333241,26.8243716 L21.6504269,26.8243716 L21.6504269,22.2542157 C21.6504269,21.4724785 21.0045471,20.8310531 20.2173812,20.8310531 L20.1299183,20.8310531 C19.3427524,20.8310531 18.6968727,21.4724785 18.6968727,22.2542157 L18.6968727,26.8243716 L17.0687175,26.8243716 L17.0687175,21.2987591 C17.0687175,20.3366211 16.2815516,19.5548839 15.312732,19.5548839 L12.7830364,19.5548839 C11.8142168,19.5548839 11.0270509,20.3366211 11.0270509,21.2987591 L11.0270509,26.8243716 L9.39889569,26.8243716 L9.39889569,22.2542157 C9.39889569,21.4724785 8.75301596,20.8310531 7.96585004,20.8310531 L7.87838716,20.8310531 C7.09122123,20.8310531 6.4453415,21.4724785 6.4453415,22.2542157 L6.4453415,26.8243716 L4.66244432,26.8243716 L4.66244432,6.07826917 L7.30651448,6.07826917 C7.56890312,6.07826917 7.77746845,5.87114222 7.77746845,5.61056316 C7.77746845,5.34998409 7.56890312,5.14285714 7.30651448,5.14285714 L4.19149035,5.14285714 C3.92910171,5.14285714 3.72053638,5.34998409 3.72053638,5.61056316 L3.72053638,14.1829462 L1.99146251,14.1829462 C1.72907387,14.1829462 1.52050854,14.3900732 1.52050854,14.6506522 L1.52050854,26.8243716 L0.470953972,26.8243716 C0.20856533,26.8243716 0,27.0314986 0,27.2920776 L0,29.3366211 C0,29.5972001 0.20856533,29.8043271 0.470953972,29.8043271 L27.6248144,29.8043271 C27.887203,29.8043271 28.0957684,29.5972001 28.0957684,29.3366211 L28.0957684,27.2920776 C28.0957684,27.0314986 27.887203,26.8243716 27.6248144,26.8243716 Z M2.46241648,26.8243716 L2.46241648,15.1183583 L3.72726429,15.1183583 L3.72726429,26.8243716 L2.46241648,26.8243716 Z M7.39397736,26.8243716 L7.39397736,22.2542157 C7.39397736,21.9869551 7.61599852,21.7664652 7.88511507,21.7664652 L7.97257795,21.7664652 C8.24169451,21.7664652 8.46371566,21.9869551 8.46371566,22.2542157 L8.46371566,26.8243716 L7.39397736,26.8243716 Z M12.7830364,20.4902959 L15.312732,20.4902959 C15.7635022,20.4902959 16.1268096,20.8510977 16.1268096,21.2987591 L16.1268096,26.8243716 L11.9689588,26.8243716 L11.9689588,21.2987591 C11.9689588,20.8510977 12.3322661,20.4902959 12.7830364,20.4902959 Z M19.6387806,26.8243716 L19.6387806,22.2542157 C19.6387806,21.9869551 19.8608018,21.7664652 20.1299183,21.7664652 L20.2173812,21.7664652 C20.4864978,21.7664652 20.7085189,21.9869551 20.7085189,22.2542157 L20.7085189,26.8243716 L19.6387806,26.8243716 Z M25.6468077,15.1183583 L25.6468077,26.8243716 L24.3819599,26.8243716 L24.3819599,15.1183583 L25.6468077,15.1183583 Z M0.941907944,28.868915 L0.941907944,27.7597836 L27.1538604,27.7597836 L27.1538604,28.868915 L0.941907944,28.868915 Z" id="Shape"></path>
                <path d="M15.1041667,14.1428571 L12.5542873,14.1428571 C12.2918987,14.1428571 12.0833333,14.3499841 12.0833333,14.6105632 L12.0833333,18.0715877 C12.0833333,18.3321667 12.2918987,18.5392937 12.5542873,18.5392937 L15.1041667,18.5392937 C15.3665553,18.5392937 15.5751206,18.3321667 15.5751206,18.0715877 L15.5751206,14.6105632 C15.5751206,14.3499841 15.3665553,14.1428571 15.1041667,14.1428571 Z M14.6332127,15.0782692 L14.6332127,17.6038816 L13.0252413,17.6038816 L13.0252413,15.0782692 L14.6332127,15.0782692 Z" id="Shape"></path>
                <path d="M15.5751206,10.7534203 C15.5751206,10.4928412 15.3665553,10.2857143 15.1041667,10.2857143 C14.841778,10.2857143 14.6332127,10.4928412 14.6332127,10.7534203 L14.6332127,12.2033089 L13.0252413,12.2033089 L13.0252413,10.7534203 C13.0252413,10.4928412 12.8166759,10.2857143 12.5542873,10.2857143 C12.2918987,10.2857143 12.0833333,10.4928412 12.0833333,10.7534203 L12.0833333,12.671015 C12.0833333,12.931594 12.2918987,13.138721 12.5542873,13.138721 L15.1041667,13.138721 C15.3665553,13.138721 15.5751206,12.931594 15.5751206,12.671015 L15.5751206,10.7534203 Z" id="Path"></path>
                <path d="M8.43846283,5.39484569 L8.425007,7.05186128 C8.425007,7.20553611 8.49901405,7.35921094 8.6201165,7.4327076 C8.69412355,7.48615972 8.79504226,7.51956729 8.89596097,7.51956729 C8.94978428,7.51956729 8.99687968,7.51288578 9.04397508,7.49952275 L9.99261093,7.18549157 C10.1137134,7.14540248 10.2079042,7.06522431 10.2617275,6.95163856 C10.3155508,6.83805282 10.3290066,6.71110404 10.2886391,6.59751829 C10.2549996,6.48393255 10.1675367,6.38370983 10.0531622,6.3235762 C9.94551554,6.26344257 9.81095726,6.25676106 9.68985481,6.30353166 L9.36691494,6.41043589 L9.37364286,5.24117086 C9.37364286,5.13426662 9.34000329,5.03404391 9.27945206,4.96054725 L8.57974902,4.02513522 L9.69658272,3.67101495 C9.79077352,3.6442889 9.8782364,3.57747375 9.93878762,3.49729558 L10.6250348,2.55520204 L11.3112821,3.49729558 C11.4660241,3.71110404 11.7553244,3.75787464 11.9706176,3.60419981 C12.0715363,3.54406618 12.1388155,3.44384346 12.1589992,3.31021317 C12.1791829,3.18994591 12.1522713,3.06967865 12.0782642,2.9560929 L11.0085259,1.47947821 C10.921063,1.35252943 10.7797769,1.28571429 10.6250348,1.28571429 C10.4702928,1.28571429 10.3290066,1.35921094 10.2415437,1.47947821 L9.25926832,2.82914413 L7.66475273,3.34362074 C7.52346654,3.39039135 7.40236409,3.51065861 7.3619966,3.6442889 C7.30817329,3.7846007 7.34181286,3.95163856 7.43600366,4.07190582 L8.43846283,5.39484569 Z" id="Path"></path>
            </g>
        </g>
    </g>
</svg>