<?xml version="1.0" encoding="UTF-8"?>
<svg width="36px" height="30px" viewBox="0 0 36 30" version="1.1" xmlns="http://www.w3.org/2000/svg" xmlns:xlink="http://www.w3.org/1999/xlink">
    <!-- Generator: Sketch 52.6 (67491) - http://www.bohemiancoding.com/sketch -->
    <title>house</title>
    <desc>Created with Sketch.</desc>
    <g id="Desktop" stroke="none" stroke-width="1" fill="none" fill-rule="evenodd">
        <g id="Bulanov_lead2" transform="translate(-750.000000, -1950.000000)" fill="#C2A060" fill-rule="nonzero">
            <g id="house" transform="translate(750.000000, 1950.000000)">
                <path d="M35.2034707,11.774026 C35.3362256,11.8831169 35.5314534,11.9064935 35.6954447,11.8285714 C35.8516269,11.7506494 35.9609544,11.587013 35.9609544,11.4077922 L35.9609544,8.29090909 C35.9609544,8.15064935 35.8906725,8.01038961 35.7813449,7.92467532 L26.2464208,0.420779221 C25.621692,-0.0779220779 24.7470716,-0.0779220779 24.1223427,0.420779221 L20.3427332,3.3974026 L20.3427332,2.04935065 C20.3427332,1.79220779 20.1318872,1.58181818 19.8741866,1.58181818 L17.3752711,1.58181818 C17.1175705,1.58181818 16.9067245,1.79220779 16.9067245,2.04935065 L16.9067245,6.09350649 L14.5874187,7.91688312 C14.4780911,8.0025974 14.4078091,8.14285714 14.4078091,8.28311688 L14.4078091,11.4 C14.4078091,11.5792208 14.5093275,11.7428571 14.6733189,11.8207792 C14.8373102,11.8987013 15.032538,11.8753247 15.1652928,11.7662338 L15.6572668,11.3766234 L15.6572668,17.5480519 L10.0034707,13.0987013 C9.37874187,12.6 8.50412148,12.6 7.87939262,13.0987013 L0.218655098,19.1376623 C0.109327549,19.2233766 0.0390455531,19.3636364 0.0390455531,19.5038961 L0.0390455531,22.6207792 C0.0390455531,22.8 0.140563991,22.9636364 0.304555315,23.0415584 C0.468546638,23.1194805 0.663774403,23.0961039 0.796529284,22.987013 L1.28850325,22.5974026 L1.28850325,29.0103896 L0.507592191,29.0103896 C0.24989154,29.0103896 0.0390455531,29.2207792 0.0390455531,29.4779221 C0.0390455531,29.7350649 0.24989154,29.9454545 0.507592191,29.9454545 L35.4924078,29.9454545 C35.7501085,29.9454545 35.9609544,29.7350649 35.9609544,29.4779221 C35.9609544,29.2207792 35.7501085,29.0103896 35.4924078,29.0103896 L34.7114967,29.0103896 L34.7114967,11.3844156 L35.2034707,11.774026 Z M22.6698482,24.787013 C22.5839479,24.8727273 22.5370933,24.9974026 22.5370933,25.1220779 C22.5370933,25.2467532 22.5839479,25.3636364 22.6698482,25.4571429 C22.7635575,25.5506494 22.8963124,25.6051948 23.0290672,25.5896104 L23.154013,25.5818182 L23.1618221,25.7064935 L23.1618221,29.0181818 L20.3505423,29.0181818 L20.3505423,21.225974 L23.1618221,21.225974 L23.1618221,24.6623377 L23.0212581,24.6545455 C22.8885033,24.6467532 22.7557484,24.7012987 22.6698482,24.787013 Z M17.8438178,5.35324675 L17.8438178,2.51688312 L19.4056399,2.51688312 L19.4056399,4.12987013 L17.8438178,5.35324675 Z M23.6225597,20.2831169 L19.8741866,20.2831169 C19.6164859,20.2831169 19.4056399,20.4935065 19.4056399,20.7506494 L19.4056399,29.0103896 L16.5943601,29.0103896 L16.5943601,10.6441558 L25.1843818,3.88831169 L25.2546638,3.94285714 L33.7744035,10.6363636 L33.7744035,29.0025974 L24.0911063,29.0025974 L24.0911063,20.7428571 C24.0911063,20.4935065 23.8802603,20.2831169 23.6225597,20.2831169 Z M35.0238612,8.50909091 L35.0238612,10.4415584 L25.4733189,2.92987013 C25.3952278,2.86753247 25.2859002,2.83636364 25.1843818,2.83636364 C25.0828633,2.83636364 24.9735358,2.86753247 24.8954447,2.92987013 L15.3449024,10.4415584 L15.3449024,8.51688312 L24.7002169,1.16103896 C24.9813449,0.935064935 25.3796095,0.935064935 25.6685466,1.16103896 L35.0238612,8.50909091 Z M11.9088937,27.4519481 L11.9088937,29.0103896 L5.97396963,29.0103896 L5.97396963,27.4519481 L11.9088937,27.4519481 Z M11.9088937,24.9584416 L11.9088937,26.5168831 L5.97396963,26.5168831 L5.97396963,24.9584416 L11.9088937,24.9584416 Z M11.9088937,22.4649351 L11.9088937,24.0233766 L5.97396963,24.0233766 L5.97396963,22.4649351 L11.9088937,22.4649351 Z M12.3774403,21.5298701 L5.50542299,21.5298701 C5.24772234,21.5298701 5.03687636,21.7402597 5.03687636,21.9974026 L5.03687636,29.0103896 L2.22559653,29.0103896 L2.22559653,21.8649351 L8.94143167,16.5818182 L15.6572668,21.8649351 L15.6572668,29.0103896 L12.845987,29.0103896 L12.845987,21.9974026 C12.845987,21.7402597 12.635141,21.5298701 12.3774403,21.5298701 Z M15.6572668,18.7480519 L15.6572668,20.6727273 L9.23036876,15.6155844 C9.05856833,15.4831169 8.82429501,15.4831169 8.65249458,15.6155844 L0.976138829,21.6623377 L0.976138829,19.7376623 L8.45726681,13.8545455 C8.73839479,13.6285714 9.13665944,13.6285714 9.42559653,13.8545455 L15.6572668,18.7480519 Z" id="Shape"></path>
                <path d="M26.7462039,26.2051948 L30.494577,26.2051948 C30.7522777,26.2051948 30.9631236,25.9948052 30.9631236,25.7376623 L30.9631236,20.7506494 C30.9631236,20.4935065 30.7522777,20.2831169 30.494577,20.2831169 L26.7462039,20.2831169 C26.4885033,20.2831169 26.2776573,20.4935065 26.2776573,20.7506494 L26.2776573,25.7376623 C26.2776573,25.9948052 26.4885033,26.2051948 26.7462039,26.2051948 Z M27.2147505,22.1532468 L27.2147505,21.2181818 L30.0260304,21.2181818 L30.0260304,22.1532468 L27.2147505,22.1532468 Z M27.2147505,25.2701299 L27.2147505,23.0883117 L30.0260304,23.0883117 L30.0260304,25.2701299 L27.2147505,25.2701299 Z" id="Shape"></path>
                <path d="M26.7462039,17.4779221 L30.494577,17.4779221 C30.7522777,17.4779221 30.9631236,17.2675325 30.9631236,17.0103896 L30.9631236,12.0233766 C30.9631236,11.7662338 30.7522777,11.5558442 30.494577,11.5558442 L26.7462039,11.5558442 C26.4885033,11.5558442 26.2776573,11.7662338 26.2776573,12.0233766 L26.2776573,17.0103896 C26.2776573,17.2675325 26.4885033,17.4779221 26.7462039,17.4779221 Z M27.2147505,13.425974 L27.2147505,12.4909091 L30.0260304,12.4909091 L30.0260304,13.425974 L27.2147505,13.425974 Z M27.2147505,16.5428571 L27.2147505,14.361039 L30.0260304,14.361039 L30.0260304,16.5428571 L27.2147505,16.5428571 Z" id="Shape"></path>
                <path d="M24.0911063,12.0233766 C24.0911063,11.7662338 23.8802603,11.5558442 23.6225597,11.5558442 L19.8741866,11.5558442 C19.6164859,11.5558442 19.4056399,11.7662338 19.4056399,12.0233766 L19.4056399,17.0103896 C19.4056399,17.2675325 19.6164859,17.4779221 19.8741866,17.4779221 L23.6225597,17.4779221 C23.8802603,17.4779221 24.0911063,17.2675325 24.0911063,17.0103896 L24.0911063,12.0233766 Z M23.154013,14.361039 L23.154013,16.5428571 L20.3427332,16.5428571 L20.3427332,14.361039 L23.154013,14.361039 Z M23.154013,12.4909091 L23.154013,13.425974 L20.3427332,13.425974 L20.3427332,12.4909091 L23.154013,12.4909091 Z" id="Shape"></path>
            </g>
        </g>
    </g>
</svg>