<?xml version="1.0" encoding="UTF-8"?>
<svg width="20px" height="20px" viewBox="0 0 20 20" version="1.1" xmlns="http://www.w3.org/2000/svg" xmlns:xlink="http://www.w3.org/1999/xlink">
    <!-- Generator: Sketch 52.6 (67491) - http://www.bohemiancoding.com/sketch -->
    <title>instagram-logo</title>
    <desc>Created with Sketch.</desc>
    <g id="Desktop" stroke="none" stroke-width="1" fill="none" fill-rule="evenodd">
        <g id="Bulanov_lead2" transform="translate(-1501.000000, -5445.000000)" fill="#252525" fill-rule="nonzero">
            <g id="instagram-logo" transform="translate(1501.000000, 5445.000000)">
                <path d="M17.8328173,0 L1.98142415,0 C0.866873065,0 0,0.866873065 0,1.98142415 L0,17.8328173 C0,18.9473684 0.866873065,19.8142415 1.98142415,19.8142415 L17.8328173,19.8142415 C18.9473684,19.8142415 19.8142415,18.9473684 19.8142415,17.8328173 L19.8142415,1.98142415 C19.8142415,0.866873065 18.9473684,0 17.8328173,0 Z M9.90712074,5.94427245 C12.1362229,5.94427245 13.869969,7.67801858 13.869969,9.90712074 C13.869969,12.1362229 12.1362229,13.869969 9.90712074,13.869969 C7.67801858,13.869969 5.94427245,12.1362229 5.94427245,9.90712074 C5.94427245,7.67801858 7.67801858,5.94427245 9.90712074,5.94427245 Z M2.47678019,17.8328173 C2.22910217,17.8328173 1.98142415,17.5851393 1.98142415,17.3374613 L1.98142415,8.91640867 L4.08668731,8.91640867 C3.9628483,9.16408669 3.9628483,9.65944272 3.9628483,9.90712074 C3.9628483,13.126935 6.6873065,15.8513932 9.90712074,15.8513932 C13.126935,15.8513932 15.8513932,13.126935 15.8513932,9.90712074 C15.8513932,9.65944272 15.8513932,9.16408669 15.7275542,8.91640867 L17.8328173,8.91640867 L17.8328173,17.3374613 C17.8328173,17.5851393 17.5851393,17.8328173 17.3374613,17.8328173 L2.47678019,17.8328173 Z M17.8328173,4.45820433 C17.8328173,4.70588235 17.5851393,4.95356037 17.3374613,4.95356037 L15.3560372,4.95356037 C15.1083591,4.95356037 14.8606811,4.70588235 14.8606811,4.45820433 L14.8606811,2.47678019 C14.8606811,2.22910217 15.1083591,1.98142415 15.3560372,1.98142415 L17.3374613,1.98142415 C17.5851393,1.98142415 17.8328173,2.22910217 17.8328173,2.47678019 L17.8328173,4.45820433 Z" id="Shape"></path>
            </g>
        </g>
    </g>
</svg>