<?xml version="1.0" encoding="UTF-8"?>
<svg width="99px" height="61px" viewBox="0 0 99 61" version="1.1" xmlns="http://www.w3.org/2000/svg" xmlns:xlink="http://www.w3.org/1999/xlink">
    <!-- Generator: Sketch 52.6 (67491) - http://www.bohemiancoding.com/sketch -->
    <title>Group</title>
    <desc>Created with Sketch.</desc>
    <g id="Desktop" stroke="none" stroke-width="1" fill="none" fill-rule="evenodd">
        <g id="Bulanov_lead2" transform="translate(-470.000000, -328.000000)" fill="#C2A060">
            <g id="Group" transform="translate(469.000000, 328.000000)">
                <path d="M98.0555556,0.693181818 L2.36111111,0.693181818 C1.66666667,0.693181818 1.11111111,1.24772727 1.11111111,1.94090909 L1.11111111,53.7909091 C1.11111111,54.4840909 1.66666667,55.0386364 2.36111111,55.0386364 L6.25,55.0386364 L6.25,58.7818182 C6.25,59.475 6.80555556,60.0295455 7.5,60.0295455 L14.0277778,60.0295455 C14.7222222,60.0295455 15.2777778,59.475 15.2777778,58.7818182 L15.2777778,55.0386364 L85.4166667,55.0386364 L85.4166667,58.7818182 C85.4166667,59.475 85.9722222,60.0295455 86.6666667,60.0295455 L93.1944444,60.0295455 C93.8888889,60.0295455 94.4444444,59.475 94.4444444,58.7818182 L94.4444444,55.0386364 L98.3333333,55.0386364 C99.0277778,55.0386364 99.5833333,54.4840909 99.5833333,53.7909091 L99.5833333,1.94090909 C99.3055556,1.24772727 98.75,0.693181818 98.0555556,0.693181818 Z M12.6388889,57.5340909 L8.61111111,57.5340909 L8.61111111,55.0386364 L12.6388889,55.0386364 L12.6388889,57.5340909 Z M91.6666667,57.5340909 L87.6388889,57.5340909 L87.6388889,55.0386364 L91.6666667,55.0386364 L91.6666667,57.5340909 Z M96.8055556,52.5431818 L3.61111111,52.5431818 L3.61111111,49.7704545 L96.8055556,49.7704545 L96.8055556,52.5431818 Z M96.8055556,47.1363636 L3.61111111,47.1363636 L3.61111111,35.9068182 L96.8055556,35.9068182 L96.8055556,47.1363636 Z M96.8055556,33.4113636 L3.61111111,33.4113636 L3.61111111,22.1818182 L96.8055556,22.1818182 L96.8055556,33.4113636 Z M96.8055556,19.6863636 L3.61111111,19.6863636 L3.61111111,8.45681818 L96.8055556,8.45681818 L96.8055556,19.6863636 Z M96.8055556,5.96136364 L3.61111111,5.96136364 L3.61111111,3.18863636 L96.8055556,3.18863636 L96.8055556,5.96136364 Z" id="Shape" fill-rule="nonzero"></path>
                <path d="M19.3055556,15.25 L31.25,15.25 C31.9444444,15.25 32.5,14.6954545 32.5,14.0022727 C32.5,13.3090909 31.9444444,12.7545455 31.25,12.7545455 L19.3055556,12.7545455 C18.6111111,12.7545455 18.0555556,13.3090909 18.0555556,14.0022727 C18.0555556,14.6954545 18.6111111,15.25 19.3055556,15.25 Z" id="Path"></path>
                <path d="M19.3055556,28.975 L31.25,28.975 C31.9444444,28.975 32.5,28.4204545 32.5,27.7272727 C32.5,27.0340909 31.9444444,26.4795455 31.25,26.4795455 L19.3055556,26.4795455 C18.6111111,26.4795455 18.0555556,27.0340909 18.0555556,27.7272727 C18.0555556,28.5590909 18.6111111,28.975 19.3055556,28.975 Z" id="Path"></path>
                <path d="M19.3055556,42.8386364 L31.25,42.8386364 C31.9444444,42.8386364 32.5,42.2840909 32.5,41.5909091 C32.5,40.8977273 31.9444444,40.3431818 31.25,40.3431818 L19.3055556,40.3431818 C18.6111111,40.3431818 18.0555556,40.8977273 18.0555556,41.5909091 C18.0555556,42.2840909 18.6111111,42.8386364 19.3055556,42.8386364 Z" id="Path"></path>
                <path d="M69.0277778,15.25 L80.9722222,15.25 C81.6666667,15.25 82.2222222,14.6954545 82.2222222,14.0022727 C82.2222222,13.3090909 81.6666667,12.7545455 80.9722222,12.7545455 L69.0277778,12.7545455 C68.3333333,12.7545455 67.7777778,13.3090909 67.7777778,14.0022727 C67.7777778,14.6954545 68.3333333,15.25 69.0277778,15.25 Z" id="Path"></path>
                <path d="M69.0277778,28.975 L80.9722222,28.975 C81.6666667,28.975 82.2222222,28.4204545 82.2222222,27.7272727 C82.2222222,27.0340909 81.6666667,26.4795455 80.9722222,26.4795455 L69.0277778,26.4795455 C68.3333333,26.4795455 67.7777778,27.0340909 67.7777778,27.7272727 C67.7777778,28.5590909 68.3333333,28.975 69.0277778,28.975 Z" id="Path"></path>
                <path d="M69.0277778,42.8386364 L80.9722222,42.8386364 C81.6666667,42.8386364 82.2222222,42.2840909 82.2222222,41.5909091 C82.2222222,40.8977273 81.6666667,40.3431818 80.9722222,40.3431818 L69.0277778,40.3431818 C68.3333333,40.3431818 67.7777778,40.8977273 67.7777778,41.5909091 C67.7777778,42.2840909 68.3333333,42.8386364 69.0277778,42.8386364 Z" id="Path"></path>
            </g>
        </g>
    </g>
</svg>