<?xml version="1.0" encoding="UTF-8"?>
<svg width="40px" height="29px" viewBox="0 0 40 29" version="1.1" xmlns="http://www.w3.org/2000/svg" xmlns:xlink="http://www.w3.org/1999/xlink">
    <!-- Generator: Sketch 52.6 (67491) - http://www.bohemiancoding.com/sketch -->
    <title>Shape</title>
    <desc>Created with Sketch.</desc>
    <g id="Desktop" stroke="none" stroke-width="1" fill="none" fill-rule="evenodd">
        <g id="Bulanov_contact" transform="translate(-335.000000, -627.000000)" fill="#C19F5E" fill-rule="nonzero">
            <path d="M370.862069,627 L338.678161,627 C336.609195,627 335,628.84127 335,630.912698 L335,652.087302 C335,654.15873 336.83908,656 338.908046,656 L371.091954,656 C373.16092,656 375,654.15873 375,652.087302 L375,630.912698 C374.770115,628.611111 372.931034,627 370.862069,627 Z M355.689655,642.190476 C355.229885,642.650794 354.310345,642.650794 353.62069,642.190476 L339.367816,629.761905 L369.942529,629.761905 L355.689655,642.190476 Z M337.988506,632.063492 L348.563218,641.269841 L342.126437,647.484127 C341.896552,647.714286 341.666667,647.944444 341.666667,648.404762 C341.666667,648.865079 341.896552,649.095238 342.126437,649.325397 C342.586207,649.785714 343.505747,649.785714 343.965517,649.325397 L350.632184,643.111111 L352.241379,644.492063 C352.931034,645.18254 353.850575,645.412698 355,645.412698 C355.91954,645.412698 357.068966,645.18254 357.758621,644.492063 L359.367816,643.111111 L366.034483,649.325397 C366.494253,649.785714 367.413793,649.785714 367.873563,649.325397 C368.103448,649.095238 368.333333,648.865079 368.333333,648.404762 C368.333333,647.944444 368.103448,647.714286 367.873563,647.484127 L361.436782,641.269841 L372.471264,631.603175 L372.471264,651.857143 C372.471264,652.547619 372.011494,653.007937 371.321839,653.007937 L339.137931,653.007937 C338.448276,653.007937 337.988506,652.547619 337.988506,651.857143 L337.988506,632.063492 Z" id="Shape"></path>
        </g>
    </g>
</svg>