<?xml version="1.0" encoding="UTF-8"?>
<svg width="100px" height="44px" viewBox="0 0 100 44" version="1.1" xmlns="http://www.w3.org/2000/svg" xmlns:xlink="http://www.w3.org/1999/xlink">
    <!-- Generator: Sketch 52.6 (67491) - http://www.bohemiancoding.com/sketch -->
    <title>Shape</title>
    <desc>Created with Sketch.</desc>
    <g id="Desktop" stroke="none" stroke-width="1" fill="none" fill-rule="evenodd">
        <g id="Bulanov_lead2" transform="translate(-910.000000, -336.000000)" fill="#C2A060" fill-rule="nonzero">
            <path d="M1010,359.067961 C1010,355.080906 1007,351.521036 1003,350.809061 C1002.42857,342.977346 996,336 987.857143,336 L931.571429,336 C923.571429,336 917,342.977346 916.428571,350.951456 C912.714286,351.94822 910,355.080906 910,358.925566 C910,362.770227 912.571429,365.902913 916.285714,366.899676 L916.285714,378.718447 C916.285714,379.430421 916.857143,380 917.571429,380 L1002.57143,380 C1003.28571,380 1003.85714,379.430421 1003.85714,378.718447 L1003.85714,366.899676 C1007.42857,366.330097 1010,362.912621 1010,359.067961 Z M931.428571,338.847896 L987.857143,338.847896 C994.428571,338.847896 999.857143,344.686084 1000.28571,351.093851 C996.285714,351.805825 993.285714,355.223301 993.285714,359.352751 L993.285714,360.20712 C992.428571,359.63754 991.428571,359.352751 990.428571,359.352751 L929.714286,359.352751 C928.714286,359.352751 927.714286,359.63754 926.857143,360.20712 L926.857143,359.352751 C926.857143,354.938511 923.428571,351.378641 919.142857,350.951456 C919.714286,344.543689 925.142857,338.847896 931.428571,338.847896 Z M993.285714,364.906149 L926.714286,364.906149 L926.714286,364.621359 C926.714286,363.055016 928,361.773463 929.571429,361.773463 L990.285714,361.773463 C991.857143,361.773463 993.142857,363.055016 993.142857,364.621359 L993.285714,364.906149 Z M918.857143,377.721683 L918.857143,366.187702 C918.857143,365.475728 918.285714,365.048544 917.714286,364.906149 C914.857143,364.621359 912.714286,362.058252 912.714286,359.210356 C912.714286,356.36246 914.857143,353.799353 917.714286,353.514563 C917.714286,353.514563 917.714286,353.514563 917.857143,353.514563 C919.571429,353.372168 921,353.799353 922.285714,355.080906 C923.428571,356.07767 924.142857,357.786408 924.142857,359.210356 L924.142857,377.864078 L918.857143,377.721683 Z M926.714286,377.721683 L926.714286,367.469256 L993.285714,367.469256 L993.285714,377.721683 L926.714286,377.721683 Z M995.857143,377.721683 L995.857143,359.067961 C995.857143,355.935275 998.428571,353.372168 1001.57143,353.372168 C1004.71429,353.372168 1007.28571,355.935275 1007.28571,359.067961 C1007.28571,361.915858 1005.14286,364.478964 1002.28571,364.763754 C1001.57143,364.763754 1001.14286,365.475728 1001.14286,366.045307 L1001.14286,377.579288 L995.857143,377.721683 Z" id="Shape"></path>
        </g>
    </g>
</svg>