<?xml version="1.0" encoding="UTF-8"?>
<svg width="40px" height="64px" viewBox="0 0 40 64" version="1.1" xmlns="http://www.w3.org/2000/svg" xmlns:xlink="http://www.w3.org/1999/xlink">
    <!-- Generator: Sketch 52.6 (67491) - http://www.bohemiancoding.com/sketch -->
    <title>Group</title>
    <desc>Created with Sketch.</desc>
    <g id="Desktop" stroke="none" stroke-width="1" fill="none" fill-rule="evenodd">
        <g id="Bulanov_contact" transform="translate(-335.000000, -318.000000)" fill="#C19F5E">
            <g id="Group" transform="translate(335.000000, 317.000000)">
                <path d="M29.1111111,1.56333333 L11.3333333,1.56333333 C5.55555556,1.56333333 0.888888889,6.25333333 0.888888889,12.06 L0.888888889,54.4933333 C0.888888889,60.3 5.55555556,64.99 11.3333333,64.99 L29.1111111,64.99 C32,64.99 34.6666667,63.8733333 36.4444444,61.8633333 C38.2222222,60.0766667 39.5555556,57.3966667 39.5555556,54.4933333 L39.5555556,23.2266667 C39.5555556,22.3333333 38.8888889,21.8866667 38.2222222,21.8866667 C37.3333333,21.8866667 36.8888889,22.5566667 36.8888889,23.2266667 L36.8888889,49.1333333 L8,49.1333333 C7.11111111,49.1333333 6.66666667,49.8033333 6.66666667,50.4733333 C6.66666667,51.3666667 7.33333333,51.8133333 8,51.8133333 L36.8888889,51.8133333 L36.8888889,54.0466667 C36.8888889,56.0566667 36,58.0666667 34.6666667,59.4066667 C33.3333333,60.7466667 31.3333333,61.64 29.3333333,61.64 L11.5555556,61.64 C9.55555556,61.64 7.55555556,60.7466667 6.22222222,59.4066667 C4.88888889,58.0666667 4,56.0566667 4,54.0466667 L4,15.41 L38.2222222,15.41 C38.2222222,15.41 38.2222222,15.41 38.4444444,15.41 C38.8888889,15.41 39.1111111,15.1866667 39.3333333,14.9633333 C39.5555556,14.74 39.7777778,14.5166667 39.7777778,14.07 C39.7777778,14.07 39.7777778,14.07 39.7777778,13.8466667 L39.7777778,11.39 C39.5555556,6.25333333 34.8888889,1.56333333 29.1111111,1.56333333 Z M36.6666667,11.8366667 L36.6666667,12.9533333 L3.77777778,12.9533333 L3.77777778,11.8366667 C3.77777778,9.82666667 4.66666667,7.81666667 6,6.47666667 C7.33333333,5.13666667 9.33333333,4.24333333 11.3333333,4.24333333 L29.1111111,4.24333333 C31.1111111,4.24333333 33.1111111,5.13666667 34.4444444,6.47666667 C36,8.04 36.6666667,9.82666667 36.6666667,11.8366667 Z" id="Shape" fill-rule="nonzero"></path>
                <path d="M19.3333333,8.04 C19.1111111,8.26333333 18.8888889,8.71 18.8888889,9.15666667 C18.8888889,9.60333333 19.1111111,9.82666667 19.3333333,10.2733333 C19.5555556,10.4966667 20,10.72 20.4444444,10.72 C20.8888889,10.72 21.1111111,10.4966667 21.5555556,10.2733333 C22,10.05 22,9.60333333 22,9.15666667 C22,8.71 21.7777778,8.48666667 21.5555556,8.04 C21.3333333,7.59333333 20.8888889,7.59333333 20.4444444,7.59333333 C20,7.81666667 19.5555556,7.81666667 19.3333333,8.04 Z" id="Path"></path>
                <path d="M24.2222222,58.29 C24.4444444,58.0666667 24.6666667,57.62 24.6666667,57.1733333 C24.6666667,56.28 24,55.8333333 23.3333333,55.8333333 L17.3333333,55.8333333 C16.4444444,55.8333333 16,56.5033333 16,57.1733333 C16,58.0666667 16.6666667,58.5133333 17.3333333,58.5133333 L23.3333333,58.5133333 C23.7777778,58.7366667 24,58.5133333 24.2222222,58.29 Z" id="Path"></path>
            </g>
        </g>
    </g>
</svg>