<?xml version="1.0" encoding="UTF-8"?>
<svg width="53px" height="60px" viewBox="0 0 53 60" version="1.1" xmlns="http://www.w3.org/2000/svg" xmlns:xlink="http://www.w3.org/1999/xlink">
    <!-- Generator: Sketch 52.6 (67491) - http://www.bohemiancoding.com/sketch -->
    <title>Shape</title>
    <desc>Created with Sketch.</desc>
    <g id="Desktop" stroke="none" stroke-width="1" fill="none" fill-rule="evenodd">
        <g id="Bulanov_video" transform="translate(-493.000000, -349.000000)" fill="#C2A060" fill-rule="nonzero">
            <path d="M501.387163,356.531709 L503.413894,353.975033 L498.226649,349.919464 C497.040384,348.991828 495.747686,348.750973 494.679373,349.268553 C493.612791,349.781144 493,350.936647 493,352.438808 L493,405.561278 C493,407.061719 493.612791,408.218856 494.679373,408.733081 C495.04968,408.912088 495.447786,409 495.85741,409 C496.63076,409 497.451654,408.689211 498.226562,408.08217 L502.95508,404.382981 L500.92835,401.826305 L496.27682,405.462012 L496.27682,352.536354 L501.387163,356.531709 Z M544.312487,375.707727 L511.334103,349.919464 C510.555817,349.309241 509.761163,349 508.973092,349 C507.545989,349 506.107454,350.062687 506.107454,352.438808 L506.107454,405.561278 C506.107454,407.935679 507.545989,409 508.973092,409 C509.761163,409 510.555817,408.690759 511.334103,408.080536 L544.312487,382.292359 C545.384005,381.45427 546,380.254726 546,379.000043 C546,377.74536 545.384005,376.545902 544.312487,375.707727 Z M509.384361,362.787574 L529.178216,378.264403 C529.460016,378.485731 529.615725,378.746113 529.615725,378.999957 C529.615725,379.253887 529.460016,379.514269 529.178216,379.735511 L509.384361,395.210791 L509.384361,362.787574 Z M542.285757,379.733963 L509.384361,405.462012 L509.384361,399.352638 L531.205033,382.290725 C532.276551,381.452549 532.890987,380.253091 532.890987,378.998409 C532.890987,377.74364 532.276551,376.544268 531.205033,375.706092 L509.384361,358.644094 L509.384361,352.536354 L542.285757,378.264403 C542.567557,378.485731 542.72318,378.746113 542.72318,378.999957 C542.723093,379.252253 542.565912,379.514269 542.285757,379.733963 Z" id="Shape"></path>
        </g>
    </g>
</svg>