<?xml version="1.0" encoding="UTF-8"?>
<svg width="19px" height="30px" viewBox="0 0 19 30" version="1.1" xmlns="http://www.w3.org/2000/svg" xmlns:xlink="http://www.w3.org/1999/xlink">
    <!-- Generator: Sketch 52.6 (67491) - http://www.bohemiancoding.com/sketch -->
    <title>inclined-smartphone</title>
    <desc>Created with Sketch.</desc>
    <g id="Desktop" stroke="none" stroke-width="1" fill="none" fill-rule="evenodd">
        <g id="Bulanov_video" transform="translate(-1409.000000, -35.000000)" fill="#C2A060">
            <g id="inclined-smartphone" transform="translate(1409.000000, 35.000000)">
                <path d="M13.4774775,0.0540540541 L5,0.0540540541 C2.28828829,0.0540540541 0.0810810811,2.26126126 0.0810810811,4.97297297 L0.0900900901,25.045045 C0.0900900901,27.7567568 2.2972973,29.963964 5.00900901,29.963964 L13.4864865,29.963964 C14.8378378,29.963964 16.0720721,29.4144144 16.963964,28.5225225 C17.8558559,27.6306306 18.4054054,26.4054054 18.4054054,25.045045 L18.3963964,10.2522523 C18.3963964,9.88288288 18.0900901,9.57657658 17.7207207,9.57657658 C17.3513514,9.57657658 17.045045,9.88288288 17.045045,10.2522523 L17.045045,22.6036036 L3.31531532,22.6036036 C2.94594595,22.6036036 2.63963964,22.9099099 2.63963964,23.2792793 C2.63963964,23.6486486 2.94594595,23.954955 3.31531532,23.954955 L17.045045,23.954955 L17.045045,25.045045 C17.045045,26 16.6756757,26.8918919 16,27.5675676 C15.3243243,28.2432432 14.4324324,28.6126126 13.4774775,28.6126126 L5,28.6126126 C4.04504505,28.6126126 3.15315315,28.2432432 2.47747748,27.5675676 C1.8018018,26.8918919 1.43243243,26 1.43243243,25.045045 L1.43243243,6.83783784 L17.7207207,6.82882883 C17.7477477,6.82882883 17.7657658,6.82882883 17.7927928,6.82882883 C17.954955,6.81081081 18.0900901,6.73873874 18.1981982,6.63063063 C18.3063063,6.52252252 18.3783784,6.37837838 18.3963964,6.22522523 C18.3963964,6.1981982 18.3963964,6.18018018 18.3963964,6.15315315 L18.3963964,4.96396396 C18.3963964,2.26126126 16.1891892,0.0540540541 13.4774775,0.0540540541 Z M17.045045,4.97297297 L17.045045,5.48648649 L1.43243243,5.48648649 L1.43243243,4.97297297 C1.43243243,4.01801802 1.8018018,3.12612613 2.47747748,2.45045045 C3.15315315,1.77477477 4.04504505,1.40540541 5,1.40540541 L13.4774775,1.40540541 C14.4324324,1.40540541 15.3243243,1.77477477 16,2.45045045 C16.6756757,3.12612613 17.045045,4.01801802 17.045045,4.97297297 Z" id="Shape" fill-rule="nonzero"></path>
                <path d="M8.76576577,3.18918919 C8.63963964,3.31531532 8.56756757,3.48648649 8.56756757,3.66666667 C8.56756757,3.84684685 8.63963964,4.01801802 8.76576577,4.14414414 C8.89189189,4.27027027 9.06306306,4.34234234 9.24324324,4.34234234 C9.42342342,4.34234234 9.59459459,4.27027027 9.72072072,4.14414414 C9.84684685,4.01801802 9.91891892,3.84684685 9.91891892,3.66666667 C9.91891892,3.48648649 9.84684685,3.31531532 9.72072072,3.18918919 C9.59459459,3.06306306 9.42342342,2.99099099 9.24324324,2.99099099 C9.06306306,2.99099099 8.88288288,3.07207207 8.76576577,3.18918919 Z" id="Path"></path>
                <path d="M11.1351351,26.8828829 C11.2612613,26.7567568 11.3333333,26.5945946 11.3333333,26.4054054 C11.3333333,26.036036 11.027027,25.7297297 10.6576577,25.7297297 L7.83783784,25.7297297 C7.46846847,25.7297297 7.16216216,26.036036 7.16216216,26.4054054 C7.16216216,26.7747748 7.46846847,27.0810811 7.83783784,27.0810811 L10.6576577,27.0810811 C10.8468468,27.0810811 11.009009,27 11.1351351,26.8828829 Z" id="Path"></path>
            </g>
        </g>
    </g>
</svg>