<?xml version="1.0" encoding="UTF-8"?>
<svg width="100px" height="49px" viewBox="0 0 100 49" version="1.1" xmlns="http://www.w3.org/2000/svg" xmlns:xlink="http://www.w3.org/1999/xlink">
    <!-- Generator: Sketch 52.6 (67491) - http://www.bohemiancoding.com/sketch -->
    <title>Shape</title>
    <desc>Created with Sketch.</desc>
    <g id="Desktop" stroke="none" stroke-width="1" fill="none" fill-rule="evenodd">
        <g id="Bulanov_lead2" transform="translate(-1350.000000, -334.000000)" fill="#C2A060" fill-rule="nonzero">
            <path d="M1448.29545,334 L1351.27841,334 C1350.56818,334 1350,334.564841 1350,335.270893 L1350,344.025937 C1350,344.731988 1350.56818,345.29683 1351.27841,345.29683 L1352.27273,345.29683 L1352.27273,381.729107 C1352.27273,382.435159 1352.84091,383 1353.55114,383 L1360.22727,383 C1360.9375,383 1361.50568,382.435159 1361.50568,381.729107 L1361.50568,351.651297 L1376.5625,351.651297 L1376.5625,381.729107 C1376.5625,382.435159 1377.13068,383 1377.84091,383 L1384.51705,383 C1385.22727,383 1385.79545,382.435159 1385.79545,381.729107 L1385.79545,351.651297 L1416.33523,351.651297 L1416.33523,381.729107 C1416.33523,382.435159 1416.90341,383 1417.61364,383 L1424.28977,383 C1425,383 1425.56818,382.435159 1425.56818,381.729107 L1425.56818,351.651297 L1438.49432,351.651297 L1438.49432,381.729107 C1438.49432,382.435159 1439.0625,383 1439.77273,383 L1446.44886,383 C1447.15909,383 1447.72727,382.435159 1447.72727,381.729107 L1447.72727,345.29683 L1448.72159,345.29683 C1449.43182,345.29683 1450,344.731988 1450,344.025937 L1450,335.270893 C1449.57386,334.564841 1449.00568,334 1448.29545,334 Z M1422.72727,351.792507 L1422.72727,380.599424 L1418.60795,380.599424 L1418.60795,351.792507 L1422.72727,351.792507 Z M1356.81818,351.792507 L1358.80682,351.792507 L1358.80682,380.599424 L1354.6875,380.599424 L1354.6875,345.29683 L1355.39773,345.29683 L1355.39773,350.521614 C1355.53977,351.227666 1356.10795,351.792507 1356.81818,351.792507 Z M1376.5625,345.29683 L1376.5625,349.25072 L1358.09659,349.25072 L1358.09659,345.29683 L1376.5625,345.29683 Z M1383.09659,345.29683 L1383.09659,380.599424 L1378.97727,380.599424 L1378.97727,345.29683 L1383.09659,345.29683 Z M1381.25,336.541787 L1381.25,342.755043 L1377.84091,342.755043 L1352.69886,342.755043 L1352.69886,336.541787 L1381.25,336.541787 Z M1444.74432,345.29683 L1444.74432,380.599424 L1440.625,380.599424 L1440.625,351.792507 L1442.61364,351.792507 C1443.32386,351.792507 1443.89205,351.227666 1443.89205,350.521614 L1443.89205,345.29683 L1444.74432,345.29683 Z M1440.19886,344.025937 C1440.19886,344.731988 1440.76705,345.29683 1441.47727,345.29683 L1441.47727,349.25072 L1385.65341,349.25072 L1385.65341,345.29683 L1435.36932,345.29683 C1436.07955,345.29683 1436.64773,344.731988 1436.64773,344.025937 C1436.64773,343.319885 1436.07955,342.755043 1435.36932,342.755043 L1383.80682,342.755043 L1383.80682,336.541787 L1447.01705,336.541787 L1447.01705,342.755043 L1441.47727,342.755043 C1440.76705,342.755043 1440.19886,343.319885 1440.19886,344.025937 Z" id="Shape"></path>
        </g>
    </g>
</svg>