<?xml version="1.0" encoding="UTF-8"?>
<svg width="39px" height="30px" viewBox="0 0 39 30" version="1.1" xmlns="http://www.w3.org/2000/svg" xmlns:xlink="http://www.w3.org/1999/xlink">
    <!-- Generator: Sketch 52.6 (67491) - http://www.bohemiancoding.com/sketch -->
    <title>store</title>
    <desc>Created with Sketch.</desc>
    <g id="Desktop" stroke="none" stroke-width="1" fill="none" fill-rule="evenodd">
        <g id="Bulanov_lead2" transform="translate(-749.000000, -2030.000000)" fill="#C2A060" fill-rule="nonzero">
            <g id="store" transform="translate(749.000000, 2030.000000)">
                <path d="M38.427593,28.8721805 L36.5577299,28.8721805 L36.5577299,11.3859398 C37.6141644,11.1237594 38.3894325,10.145188 38.3894325,8.98496241 L38.3894325,1.16541353 C38.3894325,0.522781955 37.858773,0 37.2064579,0 L1.79354207,0 C1.14122701,0 0.610567515,0.522781955 0.610567515,1.16541353 L0.610567515,8.98496241 C0.610567515,10.1452632 1.38583562,11.1237594 2.44227006,11.3859398 L2.44227006,28.8721805 L0.572407045,28.8721805 C0.256285714,28.8721805 0,29.1246617 0,29.4360902 C0,29.7475188 0.256285714,30 0.572407045,30 L38.427593,30 C38.7437143,30 39,29.7475188 39,29.4360902 C39,29.1246617 38.7437143,28.8721805 38.427593,28.8721805 Z M37.2446184,1.16541353 L37.2446184,8.98496241 C37.2446184,9.69045113 36.7104481,10.2920301 36.0538591,10.3258647 C35.7031644,10.3435338 35.3716262,10.223609 35.1186223,9.98714286 C34.8654658,9.75045113 34.7259511,9.43075188 34.7259511,9.08706767 L34.7259511,1.12781955 L37.2063816,1.12781955 C37.2275225,1.12781955 37.2446184,1.14466165 37.2446184,1.16541353 Z M5.41878669,1.12781955 L7.93737769,1.12781955 L7.93737769,9.08706767 C7.93737769,9.77112782 7.3724501,10.3276692 6.67808219,10.3276692 C5.98371429,10.3276692 5.41878669,9.77112782 5.41878669,9.08706767 L5.41878669,1.12781955 Z M9.08219178,1.12781955 L11.6007828,1.12781955 L11.6007828,9.08706767 C11.6007828,9.77112782 11.0358552,10.3276692 10.3414873,10.3276692 C9.64711937,10.3276692 9.08219178,9.77112782 9.08219178,9.08706767 L9.08219178,1.12781955 Z M12.7455969,1.12781955 L15.2641879,1.12781955 L15.2641879,9.08706767 C15.2641879,9.77112782 14.6992603,10.3276692 14.0048924,10.3276692 C13.3105245,10.3276692 12.7455969,9.77112782 12.7455969,9.08706767 L12.7455969,1.12781955 Z M16.409002,1.12781955 L18.927593,1.12781955 L18.927593,9.08706767 C18.927593,9.77112782 18.3626654,10.3276692 17.6682975,10.3276692 C16.9739295,10.3276692 16.409002,9.77112782 16.409002,9.08706767 L16.409002,1.12781955 Z M20.072407,1.12781955 L22.590998,1.12781955 L22.590998,9.08706767 C22.590998,9.77112782 22.0260705,10.3276692 21.3317025,10.3276692 C20.6373346,10.3276692 20.072407,9.77112782 20.072407,9.08706767 L20.072407,1.12781955 Z M23.7358121,1.12781955 L26.2544031,1.12781955 L26.2544031,9.08706767 C26.2544031,9.77112782 25.6894755,10.3276692 24.9951076,10.3276692 C24.3007397,10.3276692 23.7358121,9.77112782 23.7358121,9.08706767 L23.7358121,1.12781955 Z M27.3992172,1.12781955 L29.9178082,1.12781955 L29.9178082,9.08706767 C29.9178082,9.77112782 29.3528806,10.3276692 28.6585127,10.3276692 C27.9641448,10.3276692 27.3992172,9.77112782 27.3992172,9.08706767 L27.3992172,1.12781955 Z M31.0626223,1.12781955 L33.5812133,1.12781955 L33.5812133,9.08706767 C33.5812133,9.77112782 33.0162857,10.3276692 32.3219178,10.3276692 C31.6275499,10.3276692 31.0626223,9.77112782 31.0626223,9.08706767 L31.0626223,1.12781955 Z M1.7553816,8.98496241 L1.7553816,1.16541353 C1.7553816,1.14466165 1.7724775,1.12781955 1.79354207,1.12781955 L4.2739726,1.12781955 L4.2739726,9.08706767 C4.2739726,9.43075188 4.13453425,9.75045113 3.88130137,9.98714286 C3.62837378,10.2236842 3.29645401,10.3437594 2.94606458,10.3258647 C2.28955186,10.2920301 1.7553816,9.69045113 1.7553816,8.98496241 Z M3.58708415,11.3881203 C3.98899022,11.2919549 4.36006262,11.0943609 4.66939139,10.805188 C4.7321272,10.7465414 4.79142857,10.6846617 4.84691389,10.6200752 C5.28820157,11.1308271 5.94540117,11.4554135 6.67808219,11.4554135 C7.41106849,11.4554135 8.06849706,11.1306015 8.50978474,10.6193985 C8.95107241,11.1306015 9.60850098,11.4554135 10.3414873,11.4554135 C11.0744736,11.4554135 11.7319022,11.1306015 12.1731898,10.6193985 C12.6144775,11.1306015 13.2719061,11.4554135 14.0048924,11.4554135 C14.7378787,11.4554135 15.3953072,11.1306015 15.8365949,10.6193985 C16.2778826,11.1306015 16.9353112,11.4554135 17.6682975,11.4554135 C18.4012838,11.4554135 19.0587123,11.1306015 19.5,10.6193985 C19.9412877,11.1306015 20.5987162,11.4554135 21.3317025,11.4554135 C22.0646888,11.4554135 22.7221174,11.1306015 23.1634051,10.6193985 C23.6046928,11.1306015 24.2621213,11.4554135 24.9951076,11.4554135 C25.7280939,11.4554135 26.3855225,11.1306015 26.8268102,10.6193985 C27.2680978,11.1306015 27.9255264,11.4554135 28.6585127,11.4554135 C29.391499,11.4554135 30.0489276,11.1306015 30.4902153,10.6193985 C30.9315029,11.1306015 31.5889315,11.4554135 32.3219178,11.4554135 C33.0545988,11.4554135 33.7117221,11.1308271 34.1530861,10.6200752 C34.2086477,10.6846617 34.2678728,10.7465414 34.3306086,10.805188 C34.6400137,11.0944361 35.0109335,11.2925564 35.4129159,11.3887218 L35.4129159,28.8721805 L32.8943249,28.8721805 L32.8943249,15.6015038 C32.8943249,14.9588722 32.3636654,14.4360902 31.7113503,14.4360902 L24.3845401,14.4360902 C23.732225,14.4360902 23.2015656,14.9588722 23.2015656,15.6015038 L23.2015656,28.8721805 L3.58708415,28.8721805 L3.58708415,11.3881203 Z M31.7495108,28.8721805 L24.3463796,28.8721805 L24.3463796,15.6015038 C24.3463796,15.5807519 24.3634755,15.5639098 24.3845401,15.5639098 L31.7113503,15.5639098 C31.7324149,15.5639098 31.7495108,15.5807519 31.7495108,15.6015038 L31.7495108,28.8721805 Z" id="Shape"></path>
                <path d="M26.2162427,21.0526316 C25.9001213,21.0526316 25.6438356,21.3051128 25.6438356,21.6165414 L25.6438356,22.8195489 C25.6438356,23.1309774 25.9001213,23.3834586 26.2162427,23.3834586 C26.532364,23.3834586 26.7886497,23.1309774 26.7886497,22.8195489 L26.7886497,21.6165414 C26.7886497,21.3051128 26.532364,21.0526316 26.2162427,21.0526316 Z" id="Path"></path>
                <path d="M20.0342466,14.4360902 L6.75440313,14.4360902 C6.39668689,14.4360902 6.10567515,14.722782 6.10567515,15.075188 L6.10567515,25.7518797 C6.10567515,26.1042857 6.39668689,26.3909774 6.75440313,26.3909774 L20.0342466,26.3909774 C20.3919628,26.3909774 20.6829746,26.1042857 20.6829746,25.7518797 L20.6829746,15.075188 C20.6829746,14.722782 20.3919628,14.4360902 20.0342466,14.4360902 Z M19.5381605,25.2631579 L7.25048924,25.2631579 L7.25048924,15.5639098 L19.5381605,15.5639098 L19.5381605,25.2631579 Z" id="Shape"></path>
            </g>
        </g>
    </g>
</svg>